<svg width="392" height="423" viewBox="0 0 392 423" fill="none" xmlns="http://www.w3.org/2000/svg">
<path d="M319.932 297.57L204.491 328.502C196.431 330.662 188.146 325.878 185.986 317.818L118.189 64.7967C116.03 56.7363 120.813 48.4519 128.873 46.2922L244.314 15.3598C252.375 13.2 260.66 17.9828 262.82 26.0432L330.616 279.064C332.776 287.125 327.993 295.41 319.932 297.57Z" fill="#7AD3A7"/>
<path d="M189.852 314.082L123.406 66.1003C121.545 59.1564 125.665 52.0198 132.609 50.1592L243.011 20.5772C249.955 18.7166 257.092 22.8366 258.953 29.7806L325.399 277.762C327.26 284.706 323.139 291.844 316.195 293.704L205.794 323.286C198.85 325.147 191.713 321.026 189.852 314.082Z" fill="white"/>
<path d="M135.659 142.023L138.666 141.218L126.425 95.5325L123.418 96.3382L135.659 142.023Z" fill="#131D33"/>
<path d="M277.019 79.0378L280.026 78.2323L274.061 55.9736L271.055 56.7792L277.019 79.0378Z" fill="#131D33"/>
<path d="M283.463 103.088L286.47 102.282L280.506 80.0234L277.499 80.829L283.463 103.088Z" fill="#131D33"/>
<path d="M265.284 135.332L169.069 161.113C163.99 162.474 158.769 159.46 157.409 154.381L138.754 84.7632C137.394 79.6843 140.408 74.4634 145.487 73.1025L241.701 47.3218C246.78 45.961 252.001 48.9755 253.361 54.0544L272.016 123.673C273.376 128.751 270.363 133.971 265.284 135.332Z" fill="#CEEFDF"/>
<path d="M281.486 195.8L185.272 221.581C180.193 222.942 174.972 219.928 173.611 214.849L164.575 181.127C163.214 176.048 166.229 170.827 171.308 169.466L267.522 143.686C272.601 142.325 277.821 145.339 279.182 150.418L288.218 184.14C289.579 189.219 286.565 194.439 281.486 195.8Z" fill="#CEEFDF"/>
<path d="M239.883 266.489L200.157 277.133C195.078 278.494 189.857 275.48 188.496 270.401L179.461 236.68C178.1 231.6 181.114 226.38 186.193 225.019L225.919 214.374C230.998 213.014 236.219 216.027 237.58 221.107L246.615 254.828C247.976 259.907 244.962 265.128 239.883 266.489Z" fill="#CEEFDF"/>
<path d="M296.371 251.353L264.644 259.854C259.565 261.215 254.344 258.201 252.984 253.122L243.948 219.4C242.587 214.321 245.601 209.101 250.68 207.74L282.407 199.238C287.486 197.878 292.706 200.891 294.067 205.971L303.103 239.692C304.464 244.771 301.45 249.992 296.371 251.353Z" fill="#0CAF60" fill-opacity="0.1"/>
<path d="M304.376 283.748L219.854 306.396C214.922 307.717 209.853 304.791 208.531 299.858L206.673 292.924C205.351 287.992 208.278 282.922 213.21 281.601L297.732 258.953C302.664 257.632 307.733 260.559 309.055 265.491L310.913 272.425C312.235 277.357 309.308 282.427 304.376 283.748Z" fill="black"/>
<path d="M198.902 201.311L155.064 213.057C152.733 213.682 150.337 212.299 149.712 209.968L139.02 170.063C138.395 167.733 139.778 165.336 142.11 164.712L185.948 152.965C188.278 152.341 190.675 153.724 191.299 156.055L201.992 195.96C202.617 198.291 201.233 200.687 198.902 201.311Z" fill="#F1BA03"/>
<path d="M181.688 171.93C181.021 172.306 178.704 174.18 175.8 176.608L167.006 173.758L164.61 175.766L170.658 180.953C167.271 183.839 163.875 186.77 161.674 188.674L154.185 188.133L152.588 190.409L160.187 196.526C163.056 195.079 168.686 191.342 174.044 187.25L175.613 195.023L178.628 193.875L181.1 181.448L181.099 181.448C184.614 178.276 187.068 175.448 186.944 173.929C186.725 171.268 184.664 170.253 181.688 171.93Z" fill="white"/>
<path d="M172.185 185.56C168.678 188.317 165.155 191.071 161.321 193.366C160.889 193.625 161.284 194.302 161.718 194.042C165.61 191.712 169.182 188.909 172.743 186.111C173.138 185.8 172.578 185.252 172.185 185.56Z" fill="#131D33"/>
<path d="M184.787 174.035C183.607 175.955 182.089 177.643 180.316 179.032C180.148 179.163 180.183 179.449 180.318 179.586C180.482 179.752 180.707 179.713 180.873 179.583C182.698 178.154 184.252 176.402 185.466 174.428C185.73 173.997 185.051 173.606 184.787 174.035Z" fill="#131D33"/>
<path d="M290.631 27.2228L191.186 53.8689C187.895 54.7507 185.943 58.1336 186.825 61.4239L237.642 251.076C238.523 254.366 241.906 256.32 245.197 255.438L344.641 228.792C347.932 227.91 349.885 224.527 349.004 221.237L298.187 31.5845C297.305 28.2942 293.922 26.341 290.631 27.2228Z" fill="white"/>
<path d="M245.197 255.438L344.641 228.792C347.932 227.91 349.885 224.527 349.004 221.237L341.62 193.68C340.422 196.07 338.968 198.284 335.598 199.187C327.815 201.273 325.381 192.19 317.597 194.276C309.814 196.361 312.248 205.444 304.465 207.529C296.683 209.615 294.249 200.532 286.467 202.617C278.684 204.702 281.118 213.785 273.336 215.87C265.554 217.956 263.12 208.873 255.337 210.958C247.556 213.043 249.99 222.126 242.209 224.211C236.354 225.78 233.527 221.028 229.172 219.466L237.642 251.076C238.523 254.366 241.906 256.32 245.197 255.438Z" fill="#0CAF60"/>
<path d="M282.254 205.242C282.077 205.453 281.911 205.671 281.752 205.895C284.826 211.106 284.795 217.667 284.701 223.558C284.692 224.063 285.476 224.067 285.484 223.563C285.583 217.386 285.545 210.643 282.254 205.242ZM235.446 223.191C234.524 223.826 233.667 224.557 232.874 225.36C232.297 225.947 231.764 226.572 231.247 227.211L231.497 228.144C232.855 226.401 234.388 224.809 236.228 223.604C235.963 223.475 235.702 223.337 235.446 223.191ZM284.392 234.219C284.029 237.729 284.471 241.287 285.62 244.607L286.383 244.402C285.251 241.155 284.82 237.675 285.175 234.225C285.227 233.722 284.443 233.721 284.392 234.219ZM324.113 218.399C325.807 212.19 328.949 206.386 333.172 201.533C333.859 200.743 334.582 199.987 335.324 199.25C334.877 199.356 334.446 199.428 334.031 199.464C331.481 202.123 329.252 205.09 327.438 208.304C325.793 211.217 324.475 214.322 323.542 217.535C322.502 221.113 321.835 224.917 322.283 228.646C322.522 230.624 323.099 232.57 324.028 234.315L324.793 234.11C323.981 232.627 323.44 230.985 323.165 229.323C322.563 225.679 323.15 221.927 324.113 218.399ZM274.047 215.651C274.945 217.576 275.636 219.607 276.151 221.668C277.705 227.88 277.626 234.321 277.53 240.679C277.499 242.714 277.472 244.75 277.488 246.786L278.269 246.576C278.241 241.519 278.493 236.458 278.258 231.402C278.005 225.914 277.082 220.372 274.765 215.359C274.536 215.464 274.299 215.562 274.047 215.651ZM338.377 215.994C337.132 218.954 336.098 222.077 336.076 225.321C336.063 227.195 336.419 229.087 337.179 230.791L337.939 230.588C337.165 228.906 336.828 227.018 336.861 225.163C336.917 222.117 337.885 219.168 339.055 216.385C339.248 215.926 338.572 215.529 338.377 215.994ZM340.997 209.831C340.724 210.256 341.404 210.647 341.676 210.223C342.706 208.619 343.735 207.017 344.764 205.414L344.492 204.398C344.487 204.404 344.481 204.406 344.476 204.413C343.317 206.219 342.157 208.025 340.997 209.831ZM341.461 193.983C341.407 194.087 341.352 194.192 341.297 194.296C341.414 194.213 341.459 194.097 341.461 193.983ZM332.889 209.576C330.571 214.899 328.468 220.759 329.058 226.657C329.263 228.701 329.783 230.705 330.668 232.536L331.421 232.334C329.36 228.197 329.431 223.18 330.505 218.721C331.176 215.941 332.182 213.242 333.292 210.611C334.3 208.22 335.452 205.872 336.928 203.733C338.479 201.482 340.43 199.519 342.831 198.198L342.621 197.417C337.861 199.938 334.976 204.784 332.889 209.576ZM257.406 221.774C257.837 222.039 258.228 221.359 257.798 221.096C256.087 220.047 254.095 219.689 252.113 219.641C250.624 219.604 249.121 219.697 247.627 219.83C247.466 220.111 247.299 220.386 247.119 220.654C248.451 220.535 249.786 220.447 251.116 220.422C253.292 220.382 255.514 220.614 257.406 221.774ZM301.716 207.825C301.437 207.808 301.167 207.773 300.902 207.727C301 210.775 300.86 213.833 300.463 216.876C299.562 223.781 297.739 230.612 297.989 237.624C298.032 238.823 298.144 240.019 298.321 241.203L299.071 241.002C298.45 236.684 298.825 232.183 299.472 227.903C299.992 224.467 300.67 221.058 301.148 217.616C301.598 214.368 301.813 211.102 301.716 207.825ZM291.42 208.572C290.895 206.451 290.215 204.372 289.416 202.339C289.139 202.314 288.858 202.301 288.565 202.307C290.587 207.36 291.782 212.739 292.042 218.18C292.374 225.104 290.722 231.994 291.379 238.909C291.506 240.246 291.723 241.581 292.048 242.884L292.801 242.682C291.732 238.345 291.978 233.632 292.351 229.216C292.643 225.758 292.973 222.302 292.852 218.827C292.732 215.373 292.25 211.928 291.42 208.572ZM309.435 203.882C309.179 204.274 308.898 204.649 308.587 205.004C308.382 208.083 307.878 211.157 307.279 214.164C305.86 221.28 303.872 228.342 303.761 235.646C303.74 237 303.796 238.355 303.927 239.701L304.699 239.494C304.277 234.923 304.816 230.236 305.647 225.727C306.95 218.653 309.005 211.695 309.413 204.479C309.424 204.28 309.427 204.082 309.435 203.882ZM251.624 213.817C251.418 213.785 251.211 213.763 251.004 213.733C250.813 213.97 250.632 214.213 250.462 214.464C256.93 215.344 263.188 217.678 267.438 222.911C268.926 224.743 270.035 226.868 270.625 229.155C270.751 229.644 271.508 229.441 271.382 228.952C270.295 224.743 267.527 221.198 264.061 218.648C260.426 215.975 256.048 214.51 251.624 213.817ZM323.593 194.883C323.358 194.768 323.118 194.664 322.875 194.567C320.023 199.956 317.677 205.613 315.887 211.442C314.854 214.808 314.001 218.231 313.35 221.69C312.685 225.219 312.259 228.822 312.404 232.417C312.469 234.05 312.668 235.676 313.011 237.267L313.759 237.067C312.765 232.406 313.131 227.421 313.948 222.761C315.134 215.998 317.121 209.355 319.751 203.016C320.901 200.245 322.187 197.532 323.593 194.883ZM344.276 228.89L344.641 228.792C344.781 228.754 344.915 228.706 345.05 228.66C345.103 224.424 346.002 220.213 347.688 216.325L347.372 215.147C345.812 218.48 344.802 222.066 344.423 225.734C344.315 226.783 344.28 227.836 344.276 228.89ZM259.347 228.697C250.498 226.231 240.554 230.572 235.919 238.376C235.506 239.071 235.148 239.795 234.816 240.532L235.14 241.74C235.346 241.221 235.568 240.709 235.816 240.207C237.702 236.385 240.737 233.265 244.502 231.266C248.414 229.19 253.037 228.337 257.419 229.073C259.607 229.44 261.684 230.233 263.472 231.559C265.17 232.82 266.56 234.478 267.629 236.295C269.824 240.026 270.568 244.31 270.75 248.591L271.528 248.382C271.349 244.502 270.705 240.63 268.969 237.127C267.002 233.155 263.68 229.905 259.347 228.697ZM253.711 238.574C254.204 238.677 254.412 237.921 253.918 237.819C250.352 237.078 247.155 239.495 245.06 242.147C242.86 244.93 241.272 248.255 240.304 251.659C240.061 252.514 239.867 253.382 239.705 254.255C239.928 254.437 240.162 254.604 240.408 254.753C240.816 252.4 241.514 250.097 242.505 247.923C243.872 244.926 245.747 241.827 248.494 239.908C250.023 238.84 251.84 238.186 253.711 238.574ZM260.087 238.801C263.637 241.353 264.963 245.766 265.915 249.887L266.67 249.684C265.658 245.35 264.228 240.818 260.478 238.123C260.069 237.829 259.68 238.51 260.087 238.801ZM256.988 248.176C255.632 247.553 254.101 247.358 252.66 247.814C251.205 248.276 250.035 249.296 249.127 250.497C248.109 251.845 247.409 253.405 246.853 254.994L247.764 254.75C248.635 252.39 249.973 249.858 252.31 248.784C255.078 247.513 258.02 249.197 259.689 251.43C259.714 251.464 259.734 251.501 259.759 251.536L260.556 251.322C259.647 250.003 258.512 248.876 256.988 248.176Z" fill="black" fill-opacity="0.1"/>
<path d="M290.631 27.222L191.186 53.8681C187.895 54.7499 185.943 58.1328 186.824 61.4231L200.188 111.299L311.551 81.4592L298.186 31.5837C297.305 28.2934 293.922 26.3402 290.631 27.222Z" fill="#0CAF60"/>
<path d="M238.371 58.9404C240.984 60.555 243.977 61.5099 247.002 61.9633C250.921 62.5498 254.889 62.357 258.818 62.0003C259.316 61.9552 259.326 61.1706 258.824 61.2166C252.501 61.7904 245.767 61.9594 239.976 58.9494C237.26 57.5377 234.992 55.4724 233.408 52.8465C231.75 50.0976 230.839 46.9384 230.532 43.7555C230.518 43.6147 230.513 43.4741 230.501 43.3336L229.745 43.5363C230.003 46.5103 230.717 49.4235 232.121 52.1481C233.56 54.9416 235.696 57.2867 238.371 58.9404ZM225.82 79.8658C225.941 77.5649 225.483 75.3116 224.575 73.1981C223.47 70.624 221.8 68.3464 220.165 66.0912C218.484 63.775 216.85 61.4434 215.647 58.8371C214.083 55.4457 213.177 51.7617 212.95 48.0365L212.183 48.242C212.371 51.0999 212.945 53.9333 213.911 56.6372C214.859 59.294 216.181 61.7637 217.776 64.0857C219.405 66.4569 221.222 68.7049 222.675 71.1939C223.998 73.4589 224.956 75.9331 225.048 78.5782C225.115 80.5047 224.772 82.4115 224.22 84.2501C223.036 88.1905 220.986 91.7932 219.361 95.5549C217.834 99.0891 216.635 102.902 217.197 106.741L217.956 106.538C217.49 103.199 218.426 99.8602 219.7 96.7516C221.24 92.9923 223.271 89.4426 224.606 85.5972C225.247 83.7485 225.716 81.8259 225.82 79.8658ZM284.399 73.28C278.547 69.2892 271.291 68.5465 264.393 68.9753C260.548 69.2144 256.744 69.8063 252.919 70.2438C249.148 70.6748 245.288 70.9312 241.532 70.2348C235.261 69.0732 229.48 65.4148 225.763 60.2297C222.773 56.0594 221.2 50.9506 221.174 45.8329L220.403 46.0394C220.453 50.1497 221.459 54.2495 223.392 57.8919C226.358 63.48 231.504 67.7929 237.438 69.9347C240.739 71.1255 244.224 71.5303 247.72 71.4316C251.61 71.3213 255.46 70.6815 259.32 70.2298C266.501 69.3912 274.124 69.0415 280.844 72.1687C283.739 73.5159 286.412 75.4647 288.314 78.0566C290.196 80.6228 291.193 83.6616 291.726 86.7711L292.485 86.5679C292.128 84.4975 291.576 82.4662 290.689 80.5493C289.311 77.5776 287.095 75.1187 284.399 73.28ZM297.102 58.6588C294.644 56.7132 291.681 55.5577 288.812 54.3674C285.729 53.0889 282.591 51.8904 279.312 51.2202C276.059 50.5562 272.727 50.4163 269.414 50.4163C263.122 50.4157 256.66 50.9116 250.548 49.0739C246.177 47.7595 241.947 44.9218 239.826 40.835L239.077 41.0357C240.698 44.2327 243.55 46.8489 246.747 48.4254C252.306 51.1666 258.665 51.3164 264.735 51.2474C268.084 51.2093 271.439 51.115 274.781 51.3821C278.158 51.6528 281.414 52.4151 284.6 53.5571C286.199 54.1297 287.772 54.7725 289.339 55.4301C290.786 56.037 292.238 56.6425 293.63 57.3695C296.491 58.8631 298.763 60.9689 300.46 63.7163C302.171 66.4864 303.32 69.5949 304.222 72.7119C305.185 76.0419 305.808 79.4706 306.071 82.9274L306.833 82.7231C306.384 76.9537 305.011 71.1698 302.553 65.9518C301.254 63.1943 299.513 60.5668 297.102 58.6588ZM295.819 44.03C295.471 45.4027 295.587 46.8585 296.028 48.1974C296.998 51.15 299.315 53.2932 301.657 55.205C302.894 56.2146 304.131 57.2223 305.336 58.2673L304.974 56.9139C304.738 56.7151 304.502 56.517 304.266 56.3215C301.992 54.4419 299.439 52.6758 297.826 50.1511C297.049 48.934 296.487 47.5341 296.406 46.081C296.327 44.6468 296.771 43.3198 297.507 42.1029C298.242 40.8886 299.16 39.7599 300.087 38.6783L299.836 37.7397C299.101 38.5751 298.426 39.4673 297.775 40.3323C296.935 41.4482 296.166 42.6616 295.819 44.03ZM298.045 31.1455C293.399 36.1652 286.863 39.0066 280.169 40.0459C276.363 40.6374 272.481 40.6707 268.646 40.3834C265.076 40.1158 261.354 39.7387 257.972 38.4993C256.845 38.0871 255.743 37.5299 254.742 36.8383L253.754 37.103C254.433 37.626 255.163 38.082 255.918 38.4614C259.197 40.1107 262.941 40.5993 266.549 40.9785C274.215 41.784 282.169 41.3702 289.306 38.2263C292.664 36.7467 295.763 34.6669 298.302 32.0159L298.186 31.5837C298.146 31.4338 298.095 31.2895 298.045 31.1455ZM292.804 29.3121C293.603 28.8309 294.374 28.3016 295.115 27.737C294.846 27.5942 294.569 27.4673 294.28 27.3646C291.922 29.0948 289.271 30.4225 286.446 31.2305C282.555 32.3437 278.436 32.4172 274.501 31.544L272.93 31.9648C274.688 32.4616 276.499 32.7739 278.326 32.8895C283.382 33.2076 288.465 31.9177 292.804 29.3121ZM277.756 60.7873C273.736 60.1625 269.649 60.1309 265.603 60.4938C265.104 60.5381 265.095 61.3227 265.597 61.2774C272.474 60.6612 279.699 61.1299 286.073 63.9862C289.125 65.3541 291.913 67.242 294.169 69.7226C296.34 72.1102 298.024 74.9761 298.962 78.0689C299.609 80.2052 299.879 82.4343 299.705 84.6333L300.499 84.4205C300.807 79.403 298.881 74.3391 295.755 70.3863C291.366 64.8354 284.622 61.8543 277.756 60.7873ZM258.503 87.7457C258.996 87.83 259.206 87.0745 258.71 86.9893C254.724 86.3075 250.784 87.587 247.403 89.6675C244.178 91.652 241.136 94.3355 239.019 97.4955C238.213 98.6997 237.565 100.011 237.149 101.395L238.066 101.149C238.959 98.5898 240.662 96.361 242.599 94.4588C245.301 91.8048 248.529 89.4576 252.165 88.2863C254.211 87.6269 256.375 87.3812 258.503 87.7457ZM269.308 79.905C266.842 78.8419 264.225 78.4033 261.549 78.3341C258.391 78.2522 255.175 78.447 252.046 78.8686C249.186 79.2535 246.37 79.9481 243.75 81.1751C239.419 83.2035 235.744 86.5319 233.118 90.5131C230.554 94.3996 228.987 98.9716 228.794 103.634L229.6 103.418C230.054 94.9969 235.05 86.9914 242.36 82.7813C247.389 79.886 253.219 79.3136 258.913 79.1338C261.695 79.0463 264.514 79.1272 267.194 79.9531C269.374 80.6254 271.425 81.7341 273.208 83.158C275.578 85.0502 277.513 87.4944 278.792 90.2368L279.544 90.0352C278.501 87.7448 277.031 85.6456 275.216 83.884C273.504 82.2235 271.499 80.8505 269.308 79.905ZM264.499 90.0646C265.937 90.8239 267.206 91.8509 268.27 93.0562L269.118 92.829C267.951 91.4282 266.52 90.2467 264.891 89.3861C264.445 89.151 264.052 89.8282 264.499 90.0646ZM256.029 93.2241C253.282 93.3129 250.797 94.7681 249.14 96.9255C248.775 97.4004 248.467 97.9114 248.188 98.4373L249.247 98.1535C249.947 97.0345 250.862 96.0535 251.974 95.3216C254.016 93.9778 256.545 93.6465 258.866 94.4233C259.407 94.6052 259.92 94.8619 260.406 95.1634L261.394 94.8985C259.874 93.7525 257.961 93.1625 256.029 93.2241ZM201.523 88.3336C200.7 91.5209 199.883 94.7196 199.485 97.9935C199.088 101.258 199.192 104.562 199.817 107.791C200.037 108.934 200.332 110.059 200.68 111.167L201.434 110.965C200.679 108.559 200.213 106.066 200.074 103.544C199.893 100.284 200.3 97.0563 200.982 93.8735C201.365 92.0843 201.822 90.3117 202.278 88.5401C202.405 88.0511 201.648 87.8449 201.523 88.3336ZM194.432 68.4925C193.407 65.5724 191.965 62.8251 190.751 59.9841C190.049 58.3427 189.434 56.6473 189.059 54.9109C188.815 55.0965 188.588 55.3009 188.376 55.5193C189.329 59.4864 191.488 63.2377 193.015 66.9674C195.144 72.1611 195.816 77.8278 194.831 83.3657C194.586 84.7446 194.23 86.0993 193.792 87.4254L194.155 88.7811C195.611 84.8913 196.251 80.7015 196.018 76.5485C195.865 73.8077 195.342 71.0833 194.432 68.4925ZM199.676 64.2433C201.108 66.192 202.452 68.1016 203.04 70.4868C203.711 73.2176 203.577 76.0711 203.446 78.8555C203.421 79.3602 204.206 79.3634 204.23 78.8613C204.344 76.4205 204.441 73.9599 204.05 71.5376C203.667 69.1682 202.698 67.1062 201.314 65.1625C199.935 63.2279 198.541 61.3615 197.5 59.2149C196.505 57.166 195.781 54.9889 195.33 52.7579L194.584 52.9576C194.946 54.7444 195.475 56.4985 196.18 58.1837C197.089 60.3561 198.284 62.3495 199.676 64.2433ZM213.123 84.836C213.87 82.7538 214.408 80.5814 214.496 78.3642C214.596 75.8452 214.052 73.3535 213.163 71.008C211.384 66.3186 208.361 62.256 206.357 57.678C205.356 55.3931 204.564 52.8616 204.38 50.3328L203.619 50.5368C203.761 52.299 204.176 54.0567 204.756 55.7284C206.386 60.4325 209.322 64.4931 211.441 68.9656C212.592 71.3945 213.506 73.9907 213.689 76.6902C213.847 79.0369 213.431 81.3584 212.72 83.5892C211.299 88.0465 208.783 92.0624 207.362 96.5171C206.05 100.631 205.551 105.441 207.624 109.306L208.384 109.103C206.429 105.634 206.806 101.248 207.883 97.502C209.149 93.0959 211.581 89.1409 213.123 84.836Z" fill="black" fill-opacity="0.1"/>
<path d="M255.214 205.577L250.11 206.944L239.909 168.874L245.013 167.506L255.214 205.577Z" fill="#0CAF60" fill-opacity="0.2"/>
<path d="M243.659 162.455L238.555 163.823L233.455 144.788L238.559 143.42L243.659 162.455Z" fill="#0CAF60" fill-opacity="0.2"/>
<path d="M283.125 198.099L273.98 200.549L248.922 107.031L258.067 104.581L283.125 198.099Z" fill="#131D33"/>
<path d="M314.017 189.822L291.287 195.912L288.811 186.672L311.541 180.582L314.017 189.822Z" fill="#F1BA03"/>
<path d="M310.509 176.728L287.778 182.818L283.855 168.178L306.586 162.088L310.509 176.728Z" fill="#F1BA03"/>
<path d="M295.527 120.816L272.797 126.906L268.874 112.266L291.604 106.176L295.527 120.816Z" fill="#F1BA03"/>
<path d="M291.144 104.459L268.414 110.549L266.858 104.743L289.588 98.6522L291.144 104.459Z" fill="#F1BA03"/>
<path d="M288.607 140.449L286.218 149.365L290.301 146.771L295.133 146.976L288.607 140.449Z" fill="#F1BA03"/>
<path d="M284.859 126.462C284.859 126.462 286.006 130.744 287.517 136.381" stroke="#F1BA03" stroke-width="1.3402" stroke-miterlimit="10" stroke-linecap="round" stroke-linejoin="round" stroke-dasharray="0.13 5.36"/>
<path d="M291.525 151.338C293.28 157.89 294.694 163.167 294.694 163.167" stroke="#F1BA03" stroke-width="1.3402" stroke-miterlimit="10" stroke-linecap="round" stroke-linejoin="round" stroke-dasharray="0.13 5.36"/>
<path d="M265.784 204.028L264.941 204.254L239.063 107.675L239.906 107.449L265.784 204.028Z" fill="#CEEFDF"/>
<path d="M321.337 189.143L320.494 189.369L294.615 92.7896L295.458 92.5637L321.337 189.143Z" fill="#E1E8F7"/>
<path d="M311.791 116.457L307.679 117.558L301.741 95.3952L305.852 94.2935L311.791 116.457Z" fill="#CEEFDF"/>
<path d="M320.632 149.452L316.521 150.553L312.324 134.891L316.435 133.789L320.632 149.452Z" fill="#CEEFDF"/>
<path d="M330.141 184.942L326.029 186.043L321.068 167.529L325.18 166.427L330.141 184.942Z" fill="#CEEFDF"/>
<path d="M216.558 96.1765L208.779 98.2609L199.186 62.4595L206.965 60.3751L216.558 96.1765Z" fill="#131D33"/>
<path d="M227.439 93.2613L221.385 94.8834L213.955 67.153L220.009 65.5309L227.439 93.2613Z" fill="white"/>
<path d="M249.343 87.3916L241.564 89.476L235.765 67.8312L243.544 65.7468L249.343 87.3916Z" fill="#131D33"/>
<path d="M260.223 84.4769L254.169 86.099L244.576 50.2976L250.63 48.6755L260.223 84.4769Z" fill="white"/>
<path d="M298.074 71.0342L268.431 78.9768L260.489 49.3352L290.131 41.3925L298.074 71.0342Z" fill="#131D33"/>
<path d="M296.056 69.869L269.596 76.959L262.506 50.4995L288.966 43.4094L296.056 69.869Z" fill="white"/>
<path d="M269.971 54.8086L266.299 55.7925L265.315 52.1214L268.987 51.1376L269.971 54.8086Z" fill="#131D33"/>
<path d="M273.642 53.8256L269.971 54.8092L268.987 51.1382L272.658 50.1545L273.642 53.8256Z" fill="#131D33"/>
<path d="M277.313 52.8412L273.642 53.8251L272.658 50.154L276.33 49.1702L277.313 52.8412Z" fill="white"/>
<path d="M280.985 51.8581L277.313 52.8419L276.329 49.1709L280.001 48.187L280.985 51.8581Z" fill="#131D33"/>
<path d="M284.656 50.8736L280.985 51.8573L280.001 48.1863L283.672 47.2026L284.656 50.8736Z" fill="white"/>
<path d="M288.328 49.8907L284.656 50.8745L283.673 47.2035L287.344 46.2196L288.328 49.8907Z" fill="#131D33"/>
<path d="M270.954 58.4806L267.282 59.4645L266.298 55.7927L269.97 54.8088L270.954 58.4806Z" fill="#131D33"/>
<path d="M274.626 57.4972L270.955 58.4808L269.971 54.809L273.642 53.8254L274.626 57.4972Z" fill="white"/>
<path d="M278.297 56.5128L274.625 57.4967L273.642 53.8249L277.313 52.841L278.297 56.5128Z" fill="#131D33"/>
<path d="M281.969 55.5292L278.297 56.5131L277.313 52.8413L280.985 51.8574L281.969 55.5292Z" fill="white"/>
<path d="M285.64 54.5458L281.969 55.5294L280.985 51.8576L284.656 50.874L285.64 54.5458Z" fill="white"/>
<path d="M289.312 53.5614L285.64 54.5453L284.656 50.8735L288.328 49.8896L289.312 53.5614Z" fill="white"/>
<path d="M271.938 62.1527L268.267 63.1366L267.283 59.4648L270.955 58.4809L271.938 62.1527Z" fill="white"/>
<path d="M275.609 61.1683L271.938 62.152L270.954 58.4802L274.625 57.4965L275.609 61.1683Z" fill="white"/>
<path d="M279.281 60.185L275.609 61.1688L274.625 57.497L278.297 56.5132L279.281 60.185Z" fill="#131D33"/>
<path d="M282.953 59.2003L279.281 60.1842L278.297 56.5124L281.969 55.5285L282.953 59.2003Z" fill="white"/>
<path d="M286.624 58.2174L282.953 59.201L281.969 55.5292L285.64 54.5456L286.624 58.2174Z" fill="#131D33"/>
<path d="M290.295 57.2331L286.624 58.2169L285.64 54.5451L289.311 53.5613L290.295 57.2331Z" fill="#131D33"/>
<path d="M272.922 65.823L269.25 66.8069L268.266 63.1358L271.938 62.152L272.922 65.823Z" fill="#131D33"/>
<path d="M276.593 64.8396L272.922 65.8232L271.938 62.1522L275.609 61.1685L276.593 64.8396Z" fill="#131D33"/>
<path d="M280.265 63.8553L276.593 64.8391L275.609 61.1681L279.281 60.1842L280.265 63.8553Z" fill="white"/>
<path d="M283.936 62.8725L280.265 63.8563L279.281 60.1853L282.953 59.2014L283.936 62.8725Z" fill="white"/>
<path d="M287.608 61.8876L283.937 62.8712L282.953 59.2002L286.624 58.2165L287.608 61.8876Z" fill="#131D33"/>
<path d="M291.279 60.9051L287.607 61.8889L286.624 58.2179L290.296 57.234L291.279 60.9051Z" fill="white"/>
<path d="M273.906 69.4955L270.234 70.4794L269.25 66.8076L272.922 65.8237L273.906 69.4955Z" fill="white"/>
<path d="M277.576 68.5121L273.905 69.4957L272.921 65.8239L276.592 64.8403L277.576 68.5121Z" fill="white"/>
<path d="M281.248 67.5277L277.577 68.5116L276.593 64.8398L280.265 63.8559L281.248 67.5277Z" fill="#131D33"/>
<path d="M284.92 66.5441L281.249 67.528L280.265 63.8562L283.936 62.8723L284.92 66.5441Z" fill="#131D33"/>
<path d="M288.591 65.5602L284.92 66.5438L283.937 62.872L287.608 61.8884L288.591 65.5602Z" fill="white"/>
<path d="M292.263 64.5763L288.591 65.5602L287.607 61.8884L291.279 60.9045L292.263 64.5763Z" fill="#131D33"/>
<path d="M274.89 73.1663L271.218 74.1501L270.234 70.4791L273.906 69.4952L274.89 73.1663Z" fill="#131D33"/>
<path d="M278.56 72.1824L274.889 73.166L273.906 69.495L277.577 68.5113L278.56 72.1824Z" fill="#131D33"/>
<path d="M282.232 71.1989L278.561 72.1827L277.577 68.5117L281.249 67.5278L282.232 71.1989Z" fill="white"/>
<path d="M285.904 70.2148L282.232 71.1986L281.249 67.5276L284.921 66.5437L285.904 70.2148Z" fill="#131D33"/>
<path d="M289.575 69.2318L285.904 70.2155L284.92 66.5444L288.591 65.5608L289.575 69.2318Z" fill="white"/>
<path d="M293.247 68.2475L289.575 69.2313L288.592 65.5603L292.263 64.5764L293.247 68.2475Z" fill="#131D33"/>
<path d="M363.557 241.064L316.819 253.587C315.441 253.957 314.623 255.373 314.992 256.751L317.327 265.462L309.386 267.59L319.633 274.071L326.13 298.315C326.499 299.694 327.915 300.512 329.293 300.142L376.031 287.619C377.409 287.25 378.227 285.833 377.858 284.455L366.721 242.89C366.352 241.513 364.935 240.695 363.557 241.064Z" fill="#979797"/>
<path d="M358.227 270.867C354.942 265.554 355.169 254.882 342.814 258.192C330.459 261.503 335.992 270.632 335.803 276.875C335.616 283.12 332.71 284.067 332.71 284.067L335.09 285.669L349.166 281.897L363.242 278.126L364.502 275.548C364.502 275.548 361.512 276.181 358.227 270.867Z" fill="white"/>
<path d="M342.643 284.72C343.892 286.699 347.111 287.571 350.446 286.677C353.783 285.783 356.133 283.419 356.226 281.081L342.643 284.72Z" fill="white"/>
<path d="M337.048 257.001C334.433 258.204 332.564 260.631 331.707 263.343C330.717 266.478 331.13 269.902 332.21 272.954C332.508 273.799 333.863 273.443 333.562 272.592C332.581 269.82 332.152 266.773 332.998 263.906C333.727 261.435 335.398 259.294 337.757 258.209C338.573 257.833 337.861 256.627 337.048 257.001Z" fill="white"/>
<path d="M330.743 260.081C330.437 259.904 329.946 259.992 329.787 260.337C328.585 262.938 327.797 265.86 328.547 268.706C328.777 269.577 330.129 269.216 329.9 268.344C329.249 265.874 329.956 263.294 330.999 261.037C331.157 260.694 331.091 260.282 330.743 260.081Z" fill="white"/>
<path d="M354.962 257.367C352.879 255.314 350.125 253.615 347.114 254.462C346.248 254.707 346.608 256.059 347.477 255.815C350.115 255.072 352.515 256.831 354.261 258.649C356.003 260.463 357.199 262.729 357.747 265.181C357.944 266.061 359.295 265.697 359.099 264.819C358.469 262.002 357.018 259.393 354.962 257.367Z" fill="white"/>
<path d="M357.696 255.788C356.228 254.012 354.596 252.254 352.19 251.944C351.814 251.896 351.487 252.293 351.485 252.639C351.482 253.056 351.803 253.296 352.18 253.344C352.098 253.333 352.246 253.356 352.268 253.36C352.318 253.37 352.369 253.379 352.42 253.391C352.532 253.416 352.644 253.445 352.755 253.479C352.995 253.552 353.159 253.617 353.345 253.708C353.747 253.902 354.183 254.182 354.476 254.419C355.324 255.103 356.02 255.948 356.711 256.783C356.952 257.075 357.454 257.028 357.701 256.778C357.989 256.487 357.937 256.081 357.696 255.788Z" fill="white"/>
<path d="M359.779 258.631C359.604 258.309 359.131 258.18 358.821 258.381C358.494 258.593 358.384 258.994 358.572 259.339C358.807 259.774 359.028 260.216 359.23 260.667C359.282 260.781 359.331 260.897 359.381 261.013C359.389 261.031 359.388 261.029 359.391 261.035C359.395 261.043 359.393 261.04 359.399 261.054C359.42 261.108 359.443 261.162 359.465 261.216C359.558 261.45 359.647 261.685 359.732 261.922C359.854 262.267 360.207 262.538 360.589 262.417C360.926 262.31 361.216 261.929 361.084 261.56C360.724 260.552 360.29 259.571 359.779 258.631Z" fill="white"/>
<path d="M174.479 110.161L130.64 121.908C128.309 122.532 125.914 121.149 125.289 118.819L114.597 78.9141C113.972 76.5828 115.355 74.1873 117.686 73.5627L161.525 61.8162C163.855 61.1918 166.252 62.5746 166.876 64.9059L177.569 104.811C178.193 107.141 176.809 109.537 174.479 110.161Z" fill="#F57C33"/>
<path d="M162.303 87.5156C164.703 96.4737 159.387 105.682 150.428 108.082C141.47 110.482 132.263 105.166 129.862 96.208C127.462 87.2499 132.778 78.0415 141.736 75.6412C150.694 73.2409 159.903 78.5575 162.303 87.5156Z" fill="white"/>
<path d="M153.253 87.5883C152.777 87.0352 151.942 86.9726 151.389 87.4493L147.402 90.8808L144.461 82.0579C144.253 81.4322 143.606 81.0466 142.945 81.1824C142.231 81.3282 141.771 82.0252 141.917 82.7397L144.421 94.979L144.433 95.0358C144.521 95.4658 144.752 95.8687 145.119 96.1678C145.964 96.8567 147.208 96.7303 147.896 95.8854L153.276 89.2867C153.674 88.7994 153.678 88.0822 153.253 87.5883Z" fill="#F57C33"/>
<path d="M141.295 72.3522C133.752 74.6751 128.035 81.1985 126.825 89.0092C126.494 91.1447 126.493 93.3012 126.817 95.4374C126.892 95.9354 127.648 95.7288 127.573 95.2346C126.451 87.8228 129.678 80.2165 135.811 75.9025C137.55 74.6797 139.466 73.7354 141.497 73.1091C141.978 72.9617 141.777 72.2034 141.295 72.3522Z" fill="white"/>
<path d="M151.822 73.4261C149.497 72.3293 146.932 71.8159 144.363 71.9621C143.862 71.9911 143.854 72.7753 144.358 72.7465C146.788 72.6074 149.226 73.0653 151.429 74.1049C151.883 74.3191 152.279 73.642 151.822 73.4261Z" fill="white"/>
<path d="M164.587 88.8567C165.356 93.0682 164.61 97.5115 162.57 101.27C160.436 105.199 156.881 108.22 152.694 109.774C150.331 110.652 147.821 111.059 145.301 110.953C144.797 110.932 144.793 111.716 145.295 111.737C150.007 111.935 154.708 110.364 158.399 107.439C161.965 104.614 164.389 100.508 165.278 96.0549C165.766 93.6114 165.791 91.1042 165.344 88.6539C165.253 88.1574 164.497 88.3633 164.587 88.8567Z" fill="white"/>
<path d="M88.2718 133.26L44.4325 145.007C42.102 145.631 39.7062 144.248 39.0817 141.918L28.3893 102.013C27.7646 99.682 29.148 97.2864 31.4785 96.6619L75.3177 84.9152C77.6483 84.2908 80.0438 85.6738 80.6685 88.0051L91.3609 127.91C91.9853 130.24 90.6023 132.636 88.2718 133.26Z" fill="#F2561A"/>
<path d="M42.8899 116.766C48.5574 119.35 60.0301 127.867 61.3171 127.641C63.1811 127.313 63.93 125.097 64.3729 123.256C66.3393 115.075 69.3367 107.142 73.2717 99.7043C72.8914 99.1296 72.0549 99.0114 71.4109 99.257C70.7666 99.5018 70.2717 100.022 69.8104 100.535C64.9055 105.991 61.1292 112.459 58.7894 119.413C57.8761 119.159 47.9801 114.153 44.2248 114.919C43.8622 114.994 43.4864 115.087 43.2065 115.329C42.9261 115.571 42.6985 116.449 42.8899 116.766Z" fill="white"/>
<path d="M99.0699 105.617L96.7992 106.226C96.5903 106.282 96.4662 106.497 96.5221 106.706C96.5783 106.915 96.7931 107.039 97.002 106.983L99.2727 106.374C99.4824 106.318 99.606 106.104 99.5498 105.894C99.4938 105.685 99.2796 105.561 99.0699 105.617Z" fill="#F1BA03"/>
<path d="M104.368 104.198L102.098 104.806C101.889 104.862 101.764 105.077 101.82 105.286C101.877 105.496 102.091 105.619 102.3 105.563L104.571 104.955C104.781 104.899 104.904 104.684 104.848 104.475C104.792 104.266 104.578 104.142 104.368 104.198Z" fill="#F1BA03"/>
<path d="M109.667 102.778L107.396 103.386C107.187 103.442 107.063 103.657 107.119 103.866C107.175 104.076 107.39 104.199 107.599 104.143L109.87 103.535C110.08 103.479 110.203 103.265 110.147 103.055C110.091 102.846 109.877 102.722 109.667 102.778Z" fill="#F1BA03"/>
<path d="M114.967 98.79C113.564 99.1658 112.697 100.518 112.873 101.92L112.695 101.967C112.486 102.023 112.362 102.238 112.418 102.447C112.474 102.657 112.689 102.78 112.897 102.724L113.075 102.676C113.624 103.978 115.051 104.715 116.454 104.34C117.986 103.929 118.896 102.354 118.485 100.821C118.074 99.2886 116.499 98.3793 114.967 98.79Z" fill="#F1BA03"/>
<path d="M90.8586 105.249C89.3259 105.66 88.4166 107.235 88.8273 108.768C89.238 110.301 90.8129 111.21 92.3457 110.799C93.8784 110.389 94.7877 108.814 94.377 107.281C93.9663 105.748 92.3914 104.839 90.8586 105.249Z" fill="#F1BA03"/>
<path d="M159.856 141.751C159.799 141.541 159.585 141.418 159.376 141.474C159.167 141.53 159.043 141.744 159.099 141.954L159.707 144.225C159.763 144.434 159.978 144.558 160.187 144.502C160.397 144.446 160.52 144.231 160.464 144.022L159.856 141.751Z" fill="#F1BA03"/>
<path d="M160.796 146.772C160.587 146.828 160.462 147.042 160.519 147.252L161.127 149.523C161.183 149.732 161.398 149.856 161.607 149.8C161.817 149.744 161.94 149.529 161.884 149.32L161.276 147.049C161.219 146.84 161.005 146.716 160.796 146.772Z" fill="#F1BA03"/>
<path d="M158.436 136.453C158.38 136.243 158.166 136.12 157.956 136.176C157.747 136.232 157.623 136.446 157.679 136.656L158.287 138.926C158.343 139.135 158.558 139.259 158.767 139.203C158.977 139.147 159.1 138.932 159.044 138.724L158.436 136.453Z" fill="#F1BA03"/>
<path d="M155.596 125.856C155.54 125.646 155.326 125.523 155.117 125.579C154.908 125.635 154.783 125.849 154.839 126.059L155.448 128.329C155.504 128.538 155.719 128.662 155.928 128.606C156.137 128.55 156.261 128.335 156.205 128.126L155.596 125.856Z" fill="#F1BA03"/>
<path d="M157.016 131.154C156.96 130.945 156.746 130.821 156.536 130.877C156.327 130.933 156.203 131.148 156.259 131.357L156.867 133.628C156.923 133.837 157.138 133.961 157.347 133.905C157.557 133.849 157.68 133.634 157.624 133.425L157.016 131.154Z" fill="#F1BA03"/>
<path d="M154.785 124.339C156.318 123.928 157.227 122.353 156.816 120.82C156.406 119.288 154.831 118.378 153.298 118.789C151.766 119.2 150.857 120.775 151.267 122.307C151.678 123.84 153.253 124.749 154.785 124.339Z" fill="#F1BA03"/>
<path d="M162.181 151.945C160.649 152.356 159.74 153.931 160.151 155.463C160.561 156.995 162.136 157.905 163.668 157.495C165.201 157.084 166.11 155.509 165.699 153.977C165.289 152.444 163.714 151.535 162.181 151.945Z" fill="#F1BA03"/>
<path d="M95.2187 401.684C95.2187 401.684 94.543 408.935 95.4947 414.442L194.331 388.482C194.331 388.482 193.458 380.336 189.801 374.508L95.2187 401.684Z" fill="#131D33"/>
<path d="M94.9737 398.341L95.2191 401.684C95.2191 401.684 120.175 397.092 139.053 392.295C157.931 387.499 189.802 374.508 189.802 374.508L188.724 371.41L94.9737 398.341Z" fill="#1E5BB2"/>
<path d="M150.766 236.071C150.766 236.071 163.04 237.127 169.486 243.568C177.128 251.205 182.507 268.219 185.281 274.005C188.056 279.791 196.601 313.207 197.482 317.255C198.363 321.304 196.134 336.592 194.805 340.008C193.476 343.425 183.187 348.426 183.187 348.426L152.049 245.163L150.766 236.071Z" fill="#0B9954"/>
<path d="M184.578 349.593C184.578 349.593 190.993 351.343 195.458 347.669C199.924 343.995 201.598 326.206 202.192 315.476C202.785 304.748 202.771 301.613 201.7 300.083C200.63 298.554 187.477 298.775 186.357 298.91C185.237 299.045 183.575 301.472 182.181 303.663C180.786 305.853 176.648 317.531 176.648 317.531C176.648 317.531 176.049 332.556 177.04 336.254C178.031 339.952 184.578 349.593 184.578 349.593Z" fill="#0B9954"/>
<path d="M182.504 302.977C180.767 304.988 179.841 307.466 179.04 309.963C178.086 312.933 177.154 315.91 176.213 318.884C175.968 319.655 177.179 319.983 177.422 319.215C178.319 316.383 179.214 313.549 180.114 310.718C180.884 308.297 181.707 305.814 183.395 303.859C183.92 303.252 183.033 302.364 182.504 302.977Z" fill="#131D33"/>
<path d="M184.308 300.953C184.308 300.953 186.389 304.106 193.677 303.614C200.965 303.123 202.313 301.862 202.71 300.407C203.107 298.952 203.146 296.581 202.55 295.616C201.954 294.651 194.373 294.884 191.114 295.308C187.855 295.732 184.261 296.582 184.308 300.953Z" fill="#1E5BB2"/>
<path d="M193.794 274.663L205.464 235.782C205.891 234.357 204.589 233.015 203.152 233.4L185.317 238.179C184.681 238.35 184.178 238.837 183.988 239.468L172.318 278.349C171.891 279.775 173.194 281.116 174.631 280.731L192.465 275.952C193.102 275.782 193.604 275.294 193.794 274.663Z" fill="#6593D4"/>
<path d="M172.837 280.274L174.465 281.498L175.125 279.661L173.86 277.617L172.837 280.274Z" fill="#6593D4"/>
<path d="M204.683 233.646L206.53 235.039L204.73 236.397L204.683 233.646Z" fill="#6593D4"/>
<path d="M195.416 275.881L207.086 236.999C207.514 235.574 206.211 234.233 204.774 234.618L186.939 239.397C186.302 239.567 185.8 240.055 185.611 240.686L173.941 279.567C173.513 280.992 174.815 282.334 176.252 281.949L194.088 277.17C194.723 276.999 195.226 276.512 195.416 275.881Z" fill="#1E5BB2"/>
<path d="M182.763 292.517C182.763 292.517 185.636 297.377 187.528 298.573C189.42 299.768 193.769 299.388 196.245 298.855C198.721 298.323 201.066 297.302 201.782 296.063C202.497 294.824 202.515 283.166 202.201 279.06C201.887 274.955 200.487 262.891 199.889 260.171C199.291 257.45 194.006 246.035 193.297 245.833C192.589 245.63 190.726 247.962 190.713 250.846C190.7 253.73 193.109 258.322 193.469 259.665C193.829 261.009 193.206 271.388 193.206 271.388C193.206 271.388 185.13 269.101 182.806 267.76C180.483 266.418 174.434 262.409 172.902 262.558C171.371 262.706 170.378 263.889 170.738 265.232C171.098 266.576 176.531 272.191 177.991 273.24C179.45 274.289 186.557 277.36 186.534 277.759C186.509 278.158 185.451 279.096 184.385 279.513C183.318 279.93 179.154 278.558 178.534 278.201C177.915 277.843 175.77 276.192 174.954 275.101C174.138 274.01 172.718 271.642 171.413 270.682C170.109 269.722 168.023 269.757 167.665 270.377C167.307 270.996 172.238 279.626 172.989 280.472C172.989 280.472 171.914 280.367 172.559 282.289C173.206 284.211 177.18 290.74 177.645 291.008C178.11 291.277 182.763 292.517 182.763 292.517Z" fill="#F79684"/>
<path d="M187.462 285.357C186.173 285.395 184.884 285.433 183.595 285.472C182.377 285.508 181.105 285.643 179.923 285.281C178.906 284.971 178 284.353 177.176 283.698C176.203 282.924 175.27 282.099 174.323 281.295C173.94 280.97 173.386 281.524 173.771 281.852C175.535 283.349 177.328 285.234 179.571 285.991C180.777 286.398 182.056 286.301 183.307 286.264C184.689 286.223 186.073 286.182 187.456 286.14C187.96 286.125 187.966 285.342 187.462 285.357Z" fill="#F07560"/>
<path d="M188.25 280.263C187.33 280.238 186.442 280.127 185.547 279.924C185.341 279.877 185.123 279.988 185.065 280.199C185.011 280.396 185.133 280.633 185.34 280.68C186.293 280.897 187.267 281.02 188.245 281.046C188.45 281.052 188.647 280.866 188.639 280.657C188.631 280.442 188.469 280.269 188.25 280.263Z" fill="#F07560"/>
<path d="M190.265 278.364C189.434 278.185 188.618 277.942 187.823 277.638C187.63 277.564 187.385 277.72 187.342 277.912C187.291 278.136 187.411 278.316 187.616 278.394C188.41 278.697 189.227 278.94 190.059 279.121C190.258 279.164 190.491 279.06 190.54 278.846C190.585 278.648 190.479 278.411 190.265 278.364Z" fill="#F07560"/>
<path d="M195.737 272.033C195.682 271.949 195.602 271.877 195.502 271.854C195.201 271.784 194.9 271.712 194.599 271.642C194.498 271.618 194.389 271.628 194.297 271.682C194.216 271.729 194.139 271.823 194.118 271.916C194.095 272.017 194.1 272.13 194.158 272.218C194.212 272.302 194.292 272.374 194.393 272.398C194.693 272.469 194.994 272.539 195.295 272.609C195.396 272.633 195.505 272.623 195.597 272.57C195.678 272.522 195.755 272.428 195.776 272.335C195.799 272.235 195.794 272.122 195.737 272.033Z" fill="#F07560"/>
<path d="M185.841 292.148C185.304 292.048 184.757 291.994 184.21 291.995C184.005 291.997 183.807 292.172 183.815 292.385C183.823 292.596 183.984 292.78 184.204 292.78C184.456 292.779 184.708 292.789 184.96 292.811C185.083 292.822 185.209 292.83 185.331 292.853C185.334 292.853 185.34 292.854 185.341 292.855C185.377 292.86 185.413 292.866 185.448 292.872C185.511 292.882 185.573 292.893 185.634 292.904C185.739 292.923 185.841 292.92 185.937 292.864C186.017 292.816 186.094 292.723 186.116 292.629C186.16 292.437 186.057 292.188 185.841 292.148Z" fill="#F07560"/>
<path d="M76.0188 247.337C76.0188 247.337 46.2282 267.821 43.1048 271.374C39.9812 274.927 57.4785 316.93 57.4785 316.93C57.4785 316.93 87.2764 369.615 87.6727 371.094C88.0688 372.573 87.1421 386.856 88.1043 390.447C89.0664 394.038 94.9734 398.341 94.9734 398.341C94.9734 398.341 150.532 390.246 188.724 371.41C188.724 371.41 192.013 365.096 191.375 361.871C190.738 358.646 183.973 344.385 180.155 331.825C176.337 319.265 168.64 281.248 164.878 267.206C161.115 253.165 150.766 236.071 150.766 236.071C140.225 234.169 127.374 235.353 127.374 235.353L76.0188 247.337Z" fill="#0CAF60"/>
<path d="M167.892 287.017C167.94 287.156 168.019 287.258 168.11 287.341C170.384 293.65 172.442 300.039 174.25 306.5C174.744 308.263 175.208 310.033 175.659 311.807C175.813 312.415 176.584 312.601 177.008 312.115C177.178 311.92 177.241 311.653 177.177 311.404C174.875 302.519 172.049 293.823 168.985 285.177C167.573 281.188 166.045 277.272 164.346 273.34C162.545 269.17 160.717 265.011 158.755 260.913C158.321 260.004 156.97 260.8 157.404 261.706C160.842 268.892 163.97 276.225 166.775 283.678C167.132 284.796 167.5 285.91 167.892 287.017Z" fill="black"/>
<path d="M191.75 358.964C184.904 346.163 180.094 332.344 177.491 318.064C177.309 317.072 175.797 317.482 175.977 318.469C178.605 332.883 183.488 346.838 190.398 359.757C190.873 360.646 192.226 359.853 191.75 358.964Z" fill="black"/>
<path d="M122.154 273.801C126.197 270.351 128.188 264.96 128.571 259.659C128.954 254.358 127.9 249.066 126.748 243.877C126.282 241.777 125.786 239.662 125.045 237.648L74.7153 247.686C74.7153 247.686 74.5303 247.805 74.2094 248.011C74.3758 248.429 74.6819 248.85 74.9432 249.359C76.2528 251.914 77.5489 254.477 78.8518 257.035C81.717 262.662 84.6462 268.379 89.0389 272.915C93.4323 277.449 99.5895 280.706 105.875 280.112C107.897 279.921 109.859 279.345 111.798 278.743C115.478 277.601 119.224 276.303 122.154 273.801Z" fill="black"/>
<path d="M79.7364 251.279C79.7364 251.279 89.7315 282.679 112.298 274.585C134.864 266.49 120.104 235.337 120.104 235.337L79.7364 251.279Z" fill="white"/>
<path d="M110.055 266.533C109.873 266.068 109.114 266.266 109.299 266.736C110.086 268.75 110.727 270.818 111.214 272.926C111.328 273.417 112.085 273.214 111.971 272.723C111.484 270.616 110.843 268.547 110.055 266.533Z" fill="#E1E8F7"/>
<path d="M112.547 268.824C112.483 268.622 112.278 268.491 112.067 268.547C111.868 268.6 111.726 268.823 111.79 269.027C112.122 270.088 112.454 271.15 112.786 272.211C112.849 272.412 113.055 272.544 113.266 272.488C113.464 272.435 113.606 272.211 113.543 272.008C113.211 270.947 112.878 269.886 112.547 268.824Z" fill="#E1E8F7"/>
<path d="M81.6906 242.159C81.6906 242.159 83.9376 233.989 82.3433 224.63L112.524 228.678C112.524 228.678 113.137 232.428 115.404 234.56C115.404 234.56 118.207 243.073 117.879 247.205C117.551 251.338 110.401 266.04 110.068 266.26C109.736 266.48 94.8893 261.716 90.298 257.727C85.7068 253.738 81.6906 242.159 81.6906 242.159Z" fill="#F79684"/>
<path d="M112.524 228.679L82.343 224.631C82.5643 225.932 82.7056 227.204 82.7952 228.441C85.252 232.236 92.3197 242.06 101.054 244.472C107.518 246.257 111.984 239.426 114.546 233.579C112.98 231.447 112.524 228.679 112.524 228.679Z" fill="#F07560"/>
<path d="M122.771 192.599C122.771 192.599 131.126 192.238 134.111 182.853C137.096 173.468 129.376 166.684 129.376 166.684L118.43 177.397L122.771 192.599Z" fill="#131D33"/>
<path d="M74.0193 200.036C74.7728 201.368 75.5668 202.678 76.1788 204.078C77.6439 207.429 78.0057 211.138 78.6919 214.731C79.5196 219.068 80.4873 224.941 83.7808 228.068C86.7814 230.916 90.7771 232.485 94.5192 234.095C99.101 236.065 105.643 238.251 110.38 235.591C111.621 234.893 112.646 233.866 113.568 232.781C115.159 230.905 116.487 228.824 117.786 226.737C119.547 223.906 121.279 221.024 122.378 217.877C124.331 212.28 122.765 206.421 123.44 200.625C124.146 194.561 125.746 188.532 125.226 182.383C124.855 178.01 122.446 173.243 119.532 169.98C115.53 165.498 109.841 163.196 103.933 162.661C96.8573 162.021 89.2167 162.29 82.7064 165.43C75.8442 168.74 71.8011 175.245 70.9362 182.656C70.3312 187.846 70.6805 193.277 72.9657 198.048C73.2898 198.724 73.6497 199.383 74.0193 200.036Z" fill="#F79684"/>
<path d="M83.1091 199.517C82.6229 197.654 80.9882 195.462 82.0679 193.5C82.4862 192.739 83.1336 192.136 83.7036 191.481C85.4272 189.5 86.489 186.874 86.2909 184.255C86.0929 181.636 84.5236 179.085 82.1291 178.005C84.2017 176.864 86.452 176.025 88.7701 175.547C90.6232 175.166 91.9275 175.883 93.505 176.935C97.6266 179.686 101.241 183.113 105.476 185.708C108.54 187.66 110.696 188.522 114.304 188.897C115.522 189.025 116.743 189.152 117.968 189.13C124.245 189.022 130.078 184.795 132.812 179.145C135.545 173.494 135.371 166.686 133.062 160.849C130.06 153.262 123.704 150.687 115.958 151.41C110.176 151.948 102.204 155.143 96.6593 152.297C90.0911 148.923 73.7358 147.995 69.3779 160.137C69.2713 160.433 67.5655 161.075 67.2792 161.251C65.4378 162.381 63.7603 163.793 62.3043 165.386C55.1061 173.262 53.2799 187.326 58.8071 196.592C60.6447 199.673 63.3651 202.106 65.7589 204.778C67.7575 207.008 70.1194 209.955 70.4715 213.051C70.5423 213.672 69.5667 219.295 69.0975 219.113C71.374 219.995 76.7055 221.591 78.6984 219.536C79.6647 218.541 79.6945 216.974 79.4899 215.602C79.1164 213.11 78.1733 210.761 77.2177 208.446C76.4486 206.581 74.7482 203.986 74.8476 201.938C74.9095 200.667 76.302 198.652 77.5861 199.993C77.9162 200.337 78.1252 200.775 78.3407 201.201C79.2717 203.044 80.6668 203.485 82.4408 202.04C83.3073 201.335 83.3583 200.468 83.1091 199.517Z" fill="#131D33"/>
<path d="M78.1004 213.772C76.2872 215.355 70.6043 212.238 68.1247 205.072C65.6452 197.906 72.4147 195.925 76.05 199.053C79.6846 202.181 79.9137 212.189 78.1004 213.772Z" fill="#F79684"/>
<path d="M76.557 208.396C76.2389 208.832 75.6289 209.168 75.0972 208.931C74.516 208.672 74.3475 207.968 74.4581 207.394C74.6777 206.251 75.6913 205.423 76.8 205.204C77.0321 206.234 77.1742 207.551 76.557 208.396ZM77.3835 204.363C77.0704 203.288 76.5281 202.281 75.6114 201.613C74.3471 200.691 72.3794 200.605 71.278 201.829C70.9415 202.202 71.4964 202.756 71.8352 202.38C72.5505 201.585 73.7336 201.535 74.6665 201.962C75.6745 202.423 76.2718 203.423 76.5982 204.451C75.3437 204.716 74.2414 205.592 73.8035 206.828C73.5471 207.551 73.577 208.392 74.0376 209.028C74.4718 209.628 75.1849 209.915 75.9112 209.738C77.6524 209.312 77.8602 207.314 77.6841 205.839C77.654 205.587 77.611 205.333 77.5599 205.079C77.838 204.9 77.7828 204.382 77.3835 204.363Z" fill="#F07560"/>
<path d="M116.686 203.722C116.687 205.467 116.006 206.883 115.164 206.884C114.322 206.885 113.638 205.47 113.636 203.724C113.634 201.979 114.316 200.562 115.158 200.562C116.001 200.561 116.684 201.976 116.686 203.722Z" fill="#131D33"/>
<path d="M110.382 223.097C110.166 222.728 109.678 222.607 109.309 222.818C109.032 222.976 108.976 223.007 108.7 223.096C108.581 223.135 108.459 223.169 108.336 223.196C108.268 223.212 108.199 223.225 108.13 223.237C108.116 223.24 107.97 223.261 108.026 223.255C107.864 223.273 107.525 223.28 107.292 223.262C107.113 223.248 106.891 223.206 106.638 223.13C106.532 223.098 106.427 223.061 106.324 223.02C106.31 223.014 106.291 223.005 106.277 222.998C106.219 222.969 106.16 222.941 106.102 222.911C105.999 222.856 105.898 222.797 105.8 222.734C105.745 222.7 105.691 222.662 105.637 222.625C105.61 222.607 105.616 222.612 105.62 222.617C105.615 222.613 105.604 222.603 105.579 222.582C105.399 222.434 105.228 222.273 105.072 222.098C105.075 222.1 105.01 222.023 104.987 221.996C104.966 221.968 104.906 221.888 104.908 221.891C104.834 221.784 104.766 221.674 104.7 221.56C104.49 221.194 103.991 221.069 103.628 221.282C103.259 221.498 103.137 221.986 103.349 222.354C103.977 223.447 105.017 224.277 106.224 224.642C107.512 225.031 108.941 224.835 110.103 224.17C110.47 223.96 110.595 223.46 110.382 223.097Z" fill="#131D33"/>
<path d="M101.168 205.398C101.242 207.142 100.619 208.585 99.7787 208.621C98.9372 208.657 98.1945 207.272 98.1207 205.528C98.0466 203.783 98.6685 202.34 99.5099 202.305C100.351 202.269 101.094 203.654 101.168 205.398Z" fill="#131D33"/>
<path d="M112.839 214.177C112.202 212.842 110.946 211.911 110.247 210.598C109.519 209.231 109.218 207.693 109.307 206.151C109.359 205.277 108 205.272 107.949 206.142C107.805 208.634 108.637 211.075 110.24 212.983C110.887 213.754 112.171 214.841 111.745 215.988C111.323 217.124 109.965 217.203 109.044 216.675C108.285 216.24 107.606 217.416 108.365 217.851C109.544 218.526 111.036 218.574 112.124 217.69C113.205 216.813 113.425 215.405 112.839 214.177Z" fill="#F07560"/>
<path d="M119.929 198.408C119.669 198.478 119.406 198.402 119.206 198.201C118.767 197.758 118.259 197.331 117.529 197.209C116.971 197.118 116.319 197.114 115.589 197.2C115.273 197.238 114.966 197.296 114.677 197.373C113.697 197.636 112.916 198.113 112.358 198.794C112.252 198.923 112.126 199.007 111.983 199.046C111.683 199.126 111.352 198.98 111.161 198.683C110.958 198.37 110.977 197.999 111.21 197.715C111.933 196.835 112.953 196.214 114.243 195.868C114.654 195.758 115.093 195.677 115.549 195.627C116.503 195.521 117.364 195.552 118.106 195.72C119.088 195.942 119.804 196.565 120.317 197.084C120.518 197.285 120.592 197.553 120.521 197.814C120.445 198.099 120.212 198.332 119.929 198.408Z" fill="#131D33"/>
<path d="M103.533 200.243C103.272 200.313 103.009 200.234 102.812 200.026C101.847 199.01 100.511 198.469 99.1448 198.543C98.6841 198.567 98.1891 198.654 97.585 198.816C97.2126 198.916 96.8437 199.032 96.4832 199.146C95.5661 199.435 94.7939 199.778 94.1226 200.191C94.0515 200.234 93.9781 200.266 93.9032 200.286C93.5459 200.382 93.1723 200.184 93.0136 199.816C92.8787 199.503 92.9201 199.079 93.3165 198.836C94.1292 198.336 95.0539 197.935 96.2266 197.576C96.5273 197.485 96.8306 197.394 97.1379 197.311C97.9751 197.087 98.66 196.976 99.2959 196.96C100.997 196.919 102.729 197.65 103.93 198.916C104.126 199.122 104.196 199.392 104.121 199.655C104.042 199.938 103.811 200.168 103.533 200.243Z" fill="#131D33"/>
<path d="M82.0543 240.548C82.0543 240.548 88.1003 254.032 110.068 266.261C110.068 266.261 104.567 264.26 100.982 265.596C97.3974 266.933 86.7337 274.671 86.7337 274.671C86.7337 274.671 73.22 260.081 70.5319 249.349C70.5319 249.349 75.0751 244.678 82.0543 240.548Z" fill="white"/>
<path d="M110.067 266.261C110.067 266.261 119.241 249.84 114.546 233.58C114.546 233.58 121.353 231.082 129.58 234.663C129.58 234.663 131.888 253.37 128.643 264.351C128.643 264.351 117.25 260.664 110.067 266.261Z" fill="white"/>
<path d="M109.161 266.31C106.706 264.827 103.682 264.949 101.034 265.809C99.4631 266.32 97.9793 267.062 96.5221 267.83C95.19 268.533 93.8035 269.241 92.8637 270.456C92.5595 270.85 93.1119 271.407 93.4211 271.008C94.3029 269.866 95.5858 269.21 96.8366 268.55C98.2044 267.826 99.5908 267.121 101.061 266.624C103.565 265.779 106.426 265.574 108.769 266.989C109.202 267.25 109.592 266.571 109.161 266.31Z" fill="#E1E8F7"/>
<path d="M122.435 263.442C118.453 263.237 114.128 263.139 110.866 265.811C110.477 266.13 111.036 266.679 111.423 266.362C114.494 263.847 118.701 264.035 122.43 264.226C122.934 264.252 122.937 263.468 122.435 263.442Z" fill="#E1E8F7"/>
<path d="M83.2019 335.311C87.7255 330.411 110.41 314.026 116.662 310.278C122.914 306.529 126.429 306.106 126.429 306.106L133.614 314.547L135.782 320.703C135.782 320.703 132.648 329.318 129.332 334.352C126.017 339.387 97.7254 372.105 90.0405 377.274C82.3552 382.443 75.7624 383.951 68.5468 377.332C61.3313 370.714 37.6057 324.724 35.1425 301.023C33.9722 289.762 34.7855 276.859 43.1045 271.374C51.5626 265.798 72.009 281.087 83.2019 335.311Z" fill="#0B9954"/>
<path d="M125.384 305.559C109.69 312.513 96.0906 323.524 82.9168 334.342C79.4067 337.225 76.0346 340.293 73.4167 344.033C72.9535 344.695 74.0425 345.317 74.5026 344.659C76.8405 341.32 79.843 338.529 82.9585 335.927C86.1142 333.292 89.3465 330.743 92.5706 328.193C99.2607 322.9 106.096 317.755 113.384 313.307C117.453 310.824 121.66 308.572 126.019 306.64C126.755 306.315 126.116 305.235 125.384 305.559Z" fill="black"/>
<path d="M134.499 322.312C132.809 326.564 131.102 330.843 128.694 334.751C126.339 338.573 123.317 341.91 120.291 345.204C113.611 352.476 106.925 359.743 100.242 367.011C96.83 370.722 93.5165 374.766 89.1648 377.42C88.4775 377.839 89.1083 378.923 89.7997 378.501C93.7272 376.106 96.7815 372.626 99.8648 369.273C103.248 365.593 106.632 361.913 110.015 358.233C113.468 354.477 116.922 350.72 120.376 346.963C123.424 343.647 126.51 340.329 129.015 336.57C131.886 332.263 133.807 327.43 135.709 322.643C136.007 321.893 134.794 321.57 134.499 322.312Z" fill="#131D33"/>
<path d="M135.613 321.24C135.613 321.24 127.64 311.997 126.429 306.106C126.429 306.106 129.471 302.671 130.82 302.99C132.168 303.309 139.796 315.454 139.815 316.616C139.835 317.776 138.266 320.626 135.613 321.24Z" fill="#1E5BB2"/>
<path d="M130.815 304.346C130.815 304.346 133.46 312.05 138.855 316.078C138.855 316.078 141.804 312.551 145.286 311.408C148.768 310.264 153.747 305.668 154.084 303.788C154.423 301.908 151.548 296.679 151.548 296.679C151.548 296.679 145.051 295.999 142.891 296.578C140.731 297.157 130.815 304.346 130.815 304.346Z" fill="#F79684"/>
<path d="M154.084 303.787C154.18 303.254 154.013 302.447 153.731 301.571L152.608 299.697C152.608 299.697 147.358 299.876 146.856 300.01C146.355 300.145 143.528 301.055 143.528 301.055L140.138 302.732C140.138 302.732 143.435 309.479 151.133 307.627C152.721 306.174 153.924 304.677 154.084 303.787Z" fill="#F07560"/>
<path d="M166.233 284.395C166.901 283.809 167.565 283.192 167.993 282.414C168.554 281.393 168.651 280.113 168.181 279.047C167.711 277.982 166.663 277.175 165.503 277.063C164.89 277.004 164.274 277.129 163.676 277.282C161.408 277.861 159.195 278.874 157.559 280.549C156.974 281.149 156.446 281.888 156.422 282.726C156.383 284.072 157.631 285.101 158.867 285.637C159.467 285.898 160.092 286.095 160.696 286.349C161.157 286.543 162.016 287.278 162.48 287.274C163.013 287.27 163.869 286.344 164.264 286.032C164.933 285.503 165.59 284.957 166.233 284.395Z" fill="#F07560"/>
<path d="M130.815 304.346C130.815 304.346 140.962 284.487 143.344 282.455C145.726 280.423 173.334 265.919 174.028 266.429C174.722 266.94 175.921 268.291 174.353 270.244C172.786 272.197 158.666 282.949 158.666 282.949C158.666 282.949 162.29 282.953 162.917 285.293C163.544 287.633 163.991 290.859 163.923 292.688C163.856 294.518 164.467 297.838 162.795 299.4C161.124 300.963 159.519 300.697 159.519 300.697C159.519 300.697 159.668 301.771 159.122 302.335C158.577 302.9 155.257 303.511 155.257 303.511C155.257 303.511 154.739 305.74 153.508 306.348C152.278 306.957 147.259 307.465 145.81 306.739C144.361 306.012 144.504 302.908 144.625 302.319C144.745 301.728 147.936 301.152 147.936 301.152L147.822 300.208C147.822 300.208 145.273 300.054 144.562 300.524C143.851 300.993 135.342 305.641 130.815 304.346Z" fill="#F79684"/>
<path d="M152.146 289.679C151.271 289.499 150.397 289.32 149.522 289.14C149.029 289.039 148.82 289.794 149.315 289.896C150.096 290.057 150.877 290.217 151.658 290.377C152.324 290.514 153.215 290.55 153.575 291.222C153.891 291.81 153.917 292.598 154.019 293.246C154.142 294.031 154.258 294.817 154.367 295.604C154.587 297.174 154.78 298.748 154.947 300.325C155.071 301.487 155.212 302.669 155.166 303.841C155.227 303.64 155.257 303.511 155.257 303.511C155.257 303.511 155.535 303.459 155.936 303.375C155.936 302.296 155.826 301.218 155.711 300.141C155.528 298.431 155.314 296.725 155.071 295.023C154.95 294.174 154.822 293.325 154.686 292.478C154.577 291.796 154.49 291.044 154.028 290.495C153.555 289.933 152.827 289.82 152.146 289.679ZM157.677 286.466C156.23 285.689 154.416 285.407 152.795 285.343C152.291 285.322 152.287 286.106 152.79 286.126C154.277 286.186 156.036 286.424 157.349 287.18C158.175 287.654 158.162 288.55 158.276 289.4C158.395 290.29 158.51 291.18 158.619 292.07C158.986 295.061 159.284 298.059 159.538 301.062C159.54 300.846 159.52 300.697 159.52 300.697C159.52 300.697 159.821 300.738 160.284 300.673C160.003 297.418 159.672 294.168 159.259 290.927C159.142 290.008 159.046 289.081 158.889 288.168C158.757 287.4 158.365 286.836 157.677 286.466Z" fill="#F07560"/>
<path d="M137.744 303.067C136.93 303.329 136.109 303.574 135.284 303.801C135.087 303.855 134.943 304.078 135.007 304.281C135.071 304.482 135.275 304.616 135.487 304.558C136.312 304.331 137.133 304.086 137.946 303.824C138.141 303.761 138.29 303.553 138.224 303.344C138.163 303.15 137.953 302.999 137.744 303.067Z" fill="#F07560"/>
<path d="M150.617 306.399C149.556 306.58 148.477 306.642 147.402 306.586C146.957 306.563 146.484 306.538 146.07 306.354C145.654 306.169 145.401 305.811 145.26 305.387C145.102 304.919 145.033 304.418 144.989 303.928C144.951 303.524 144.852 302.965 145.041 302.583C145.238 302.185 145.904 302.123 146.287 302.024C146.761 301.9 147.24 301.79 147.719 301.687C147.729 301.753 147.734 301.819 147.744 301.885C147.776 302.089 148.037 302.221 148.224 302.162C148.444 302.093 148.535 301.9 148.501 301.683C148.379 300.893 148.303 300.076 148.273 299.259C148.265 299.054 148.102 298.856 147.884 298.864C147.68 298.872 147.481 299.034 147.49 299.253C147.496 299.435 147.515 299.616 147.526 299.798C146.229 299.9 144.864 299.887 143.733 300.585C142.514 301.337 141.182 301.801 139.828 302.248C139.351 302.405 139.551 303.163 140.031 303.005C141.301 302.586 142.587 302.161 143.75 301.49C144.022 301.333 144.279 301.151 144.558 301.01C144.885 300.846 145.242 300.797 145.602 300.761C146.261 300.698 146.92 300.639 147.579 300.58C147.59 300.689 147.608 300.797 147.62 300.905C147.143 301.006 146.669 301.116 146.197 301.237C145.751 301.352 145.233 301.439 144.838 301.69C144.056 302.185 144.132 303.176 144.21 303.982C144.297 304.875 144.423 305.899 145.062 306.586C145.658 307.227 146.571 307.328 147.396 307.37C148.542 307.429 149.689 307.348 150.819 307.156C151.316 307.072 151.11 306.316 150.617 306.399Z" fill="#F07560"/>
<path d="M72.6775 299.446C71.0638 296.287 69.2895 293.213 67.3743 290.227C66.8317 289.381 65.4756 290.169 66.0225 291.021C74.5217 304.272 80.0256 319.299 82.1137 334.902C82.2469 335.899 83.7595 335.484 83.6275 334.497C81.9951 322.297 78.2771 310.407 72.6775 299.446Z" fill="black"/>
<path d="M59.7756 282.911C53.3488 277.92 44.394 278.089 38.168 283.351C37.3981 284.001 38.5159 285.101 39.2826 284.453C44.7995 279.79 52.9622 279.59 58.6731 284.025C59.4595 284.636 60.5726 283.53 59.7756 282.911Z" fill="black"/>
<path d="M71.136 255.183C62.9452 260.709 55.6396 267.467 49.5216 275.227C48.9042 276.01 50.0105 277.122 50.6359 276.329C56.6692 268.677 63.8509 261.986 71.9297 256.535C72.7608 255.974 71.9754 254.617 71.136 255.183Z" fill="black"/>
<path d="M160.673 240.172C152.216 238.284 143.578 237.283 134.913 237.196C133.903 237.186 133.893 238.754 134.901 238.764C143.434 238.85 151.93 239.824 160.258 241.684C161.242 241.903 161.658 240.391 160.673 240.172Z" fill="black"/>
<path d="M162.816 242.607C160.04 247.782 159.145 253.785 160.268 259.548C160.461 260.538 161.974 260.129 161.782 259.142C160.741 253.799 161.602 248.185 164.174 243.39C164.65 242.502 163.295 241.716 162.816 242.607Z" fill="black"/>
<path d="M235.123 293.894C234.721 292.394 234.688 290.973 235.024 289.631C235.356 288.275 236.012 287.117 236.992 286.159C237.982 285.183 239.213 284.497 240.684 284.103C242.486 283.62 244.157 283.683 245.696 284.291C247.234 284.899 248.44 285.967 249.313 287.495L245.246 288.584C244.773 288.031 244.211 287.664 243.56 287.483C242.923 287.298 242.251 287.3 241.545 287.49C240.405 287.795 239.589 288.439 239.095 289.421C238.6 290.404 238.531 291.559 238.887 292.885C239.242 294.212 239.879 295.177 240.799 295.781C241.718 296.385 242.747 296.534 243.886 296.229C244.593 296.04 245.176 295.706 245.635 295.227C246.109 294.745 246.412 294.146 246.545 293.43L250.612 292.34C250.62 294.1 250.109 295.628 249.081 296.924C248.048 298.205 246.631 299.088 244.828 299.571C243.357 299.965 241.951 299.994 240.609 299.658C239.277 299.304 238.13 298.629 237.168 297.635C236.206 296.641 235.524 295.394 235.123 293.894ZM255.272 285.875C255.527 285.096 255.929 284.431 256.477 283.883C257.022 283.319 257.691 282.931 258.484 282.719L259.533 286.634L258.516 286.907C257.593 287.154 256.955 287.542 256.602 288.069C256.245 288.582 256.199 289.336 256.466 290.331L257.967 295.934L254.268 296.925L251.034 284.854L254.733 283.863L255.272 285.875ZM273.231 285.167C273.323 285.513 273.398 285.879 273.456 286.266L265.084 288.509C265.342 289.243 265.735 289.757 266.261 290.048C266.798 290.322 267.377 290.375 267.997 290.209C268.92 289.962 269.457 289.401 269.609 288.525L273.546 287.47C273.557 288.318 273.381 289.13 273.017 289.908C272.668 290.681 272.145 291.355 271.448 291.928C270.752 292.501 269.913 292.919 268.933 293.181C267.75 293.498 266.63 293.528 265.571 293.271C264.513 293.013 263.599 292.485 262.828 291.687C262.058 290.889 261.505 289.862 261.169 288.607C260.832 287.353 260.791 286.189 261.045 285.116C261.313 284.04 261.841 283.126 262.628 282.374C263.416 281.621 264.408 281.085 265.605 280.764C266.774 280.451 267.878 280.418 268.918 280.665C269.958 280.912 270.852 281.422 271.6 282.195C272.362 282.965 272.906 283.955 273.231 285.167ZM269.184 285.208C269.014 284.573 268.663 284.126 268.129 283.867C267.596 283.608 267.005 283.566 266.356 283.74C265.736 283.906 265.258 284.227 264.922 284.704C264.6 285.176 264.478 285.758 264.555 286.448L269.184 285.208ZM244.232 328.322C243.899 327.082 243.838 325.931 244.049 324.87C244.273 323.805 244.722 322.912 245.394 322.191C246.067 321.47 246.9 320.976 247.895 320.709C248.746 320.481 249.535 320.455 250.263 320.631C251.004 320.803 251.624 321.124 252.121 321.594L251.663 319.885L255.362 318.894L258.596 330.965L254.897 331.956L254.439 330.247C254.229 330.906 253.846 331.496 253.29 332.016C252.748 332.532 252.052 332.904 251.201 333.132C250.22 333.395 249.258 333.382 248.316 333.094C247.369 332.791 246.532 332.235 245.805 331.425C245.088 330.596 244.564 329.562 244.232 328.322ZM253.28 325.921C253.032 324.998 252.578 324.339 251.916 323.944C251.268 323.546 250.576 323.445 249.841 323.643C249.105 323.84 248.549 324.274 248.173 324.947C247.807 325.602 247.748 326.39 247.996 327.313C248.243 328.236 248.692 328.904 249.344 329.317C250.006 329.711 250.705 329.81 251.441 329.613C252.176 329.416 252.725 328.983 253.086 328.314C253.463 327.641 253.527 326.844 253.28 325.921ZM267.16 325.308L268 328.445L266.118 328.949C264.777 329.309 263.644 329.265 262.721 328.816C261.793 328.354 261.13 327.38 260.732 325.895L259.445 321.092L257.974 321.486L257.151 318.415L258.622 318.02L257.834 315.078L261.533 314.087L262.321 317.029L264.744 316.38L265.567 319.452L263.144 320.101L264.443 324.947C264.539 325.307 264.695 325.544 264.911 325.656C265.127 325.768 265.436 325.77 265.84 325.662L267.16 325.308ZM279.77 318.614C279.863 318.96 279.938 319.326 279.995 319.713L271.623 321.956C271.882 322.691 272.274 323.204 272.801 323.496C273.338 323.769 273.916 323.823 274.536 323.656C275.459 323.409 275.997 322.848 276.149 321.972L280.086 320.917C280.097 321.765 279.92 322.577 279.556 323.355C279.207 324.128 278.684 324.802 277.988 325.375C277.291 325.948 276.453 326.366 275.472 326.629C274.289 326.945 273.169 326.975 272.111 326.718C271.052 326.46 270.138 325.932 269.368 325.134C268.597 324.336 268.044 323.309 267.708 322.055C267.372 320.8 267.33 319.636 267.584 318.564C267.852 317.487 268.38 316.573 269.168 315.821C269.955 315.069 270.948 314.532 272.145 314.211C273.313 313.898 274.417 313.865 275.457 314.112C276.497 314.359 277.391 314.869 278.139 315.643C278.902 316.412 279.445 317.402 279.77 318.614ZM275.724 318.655C275.553 318.02 275.202 317.573 274.669 317.314C274.136 317.055 273.545 317.013 272.896 317.187C272.275 317.353 271.797 317.674 271.461 318.151C271.14 318.623 271.017 319.205 271.094 319.895L275.724 318.655Z" fill="white"/>
<path d="M234.856 210.489C234.627 209.635 234.596 208.843 234.764 208.113C234.931 207.384 235.277 206.763 235.799 206.252C236.313 205.735 236.969 205.369 237.77 205.155C238.562 204.943 239.314 204.931 240.025 205.12C240.733 205.301 241.343 205.67 241.855 206.226C242.365 206.774 242.733 207.471 242.96 208.317L243.773 211.353L235.67 213.525L234.856 210.489ZM241.285 208.902C241.085 208.156 240.726 207.629 240.207 207.323C239.687 207.017 239.054 206.964 238.308 207.164C237.561 207.364 237.036 207.727 236.732 208.254C236.428 208.781 236.375 209.418 236.576 210.164L236.826 211.099L241.536 209.837L241.285 208.902ZM238.619 197.843L239.43 200.868L240.991 200.969L241.545 203.035L232.655 202.275L232.043 199.989L239.361 194.885L239.921 196.975L238.619 197.843ZM237.231 198.759L234.534 200.559L237.767 200.756L237.231 198.759ZM238.293 190.577C238.452 191.17 238.498 191.727 238.431 192.248C238.365 192.769 238.181 193.222 237.88 193.608C237.577 193.986 237.162 194.254 236.636 194.412L236.073 192.311C236.365 192.199 236.568 192.034 236.682 191.813C236.788 191.595 236.803 191.343 236.727 191.059C236.649 190.766 236.521 190.553 236.345 190.419C236.161 190.286 235.95 190.252 235.711 190.316C235.511 190.37 235.364 190.483 235.271 190.657C235.175 190.823 235.112 191.017 235.081 191.24C235.047 191.455 235.025 191.758 235.015 192.149C234.993 192.715 234.946 193.186 234.873 193.56C234.8 193.934 234.638 194.283 234.386 194.606C234.135 194.929 233.755 195.159 233.247 195.295C232.493 195.497 231.831 195.381 231.261 194.948C230.684 194.517 230.278 193.863 230.042 192.986C229.803 192.093 229.826 191.316 230.11 190.654C230.387 189.994 230.902 189.543 231.653 189.3L232.225 191.436C231.968 191.521 231.79 191.672 231.691 191.888C231.584 192.107 231.568 192.354 231.643 192.631C231.706 192.87 231.823 193.045 231.993 193.156C232.156 193.269 232.356 193.294 232.595 193.23C232.856 193.16 233.027 192.982 233.108 192.697C233.188 192.411 233.243 191.984 233.272 191.415C233.308 190.845 233.364 190.376 233.439 190.01C233.512 189.635 233.671 189.288 233.915 188.967C234.159 188.646 234.523 188.42 235.008 188.29C235.469 188.166 235.921 188.173 236.362 188.311C236.801 188.441 237.192 188.699 237.535 189.085C237.877 189.472 238.13 189.969 238.293 190.577ZM226.987 181.12L235.091 178.948L235.619 180.922L232.283 181.816L233.106 184.887L236.442 183.993L236.971 185.967L228.867 188.138L228.338 186.164L231.513 185.314L230.69 182.243L227.516 183.094L226.987 181.12ZM229.832 175.577C229.032 175.791 228.273 175.809 227.557 175.63C226.833 175.453 226.216 175.102 225.704 174.58C225.183 174.051 224.818 173.394 224.607 172.609C224.35 171.647 224.383 170.756 224.707 169.935C225.032 169.114 225.602 168.47 226.417 168.004L226.999 170.175C226.703 170.427 226.507 170.727 226.411 171.074C226.312 171.414 226.313 171.773 226.414 172.15C226.577 172.758 226.921 173.194 227.445 173.457C227.97 173.721 228.586 173.758 229.294 173.568C230.002 173.379 230.517 173.038 230.839 172.548C231.161 172.057 231.241 171.508 231.078 170.9C230.977 170.523 230.799 170.212 230.544 169.967C230.286 169.714 229.966 169.553 229.584 169.482L229.003 167.311C229.942 167.307 230.757 167.579 231.449 168.128C232.133 168.679 232.603 169.436 232.861 170.398C233.072 171.183 233.087 171.933 232.908 172.649C232.719 173.36 232.359 173.972 231.828 174.485C231.298 174.999 230.632 175.363 229.832 175.577ZM230.218 160.766L227.611 163.271L227.738 163.744L230.797 162.924L231.326 164.898L223.222 167.07L222.334 163.757C222.163 163.118 222.129 162.545 222.233 162.039C222.334 161.525 222.551 161.104 222.884 160.776C223.209 160.45 223.61 160.223 224.087 160.095C224.626 159.95 225.148 159.975 225.654 160.17C226.158 160.357 226.578 160.722 226.913 161.268L229.621 158.538L230.218 160.766ZM226.341 164.118L226.013 162.895C225.916 162.533 225.755 162.287 225.531 162.158C225.305 162.02 225.03 161.995 224.706 162.082C224.399 162.164 224.181 162.322 224.053 162.554C223.924 162.778 223.907 163.071 224.004 163.433L224.332 164.657L226.341 164.118ZM222.133 156.68L223.772 156.24L223.064 153.597L224.588 153.188L225.296 155.832L227.074 155.356L226.273 152.366L227.854 151.942L229.184 156.906L221.08 159.077L219.75 154.113L221.332 153.69L222.133 156.68ZM224.604 145.538L225.414 148.562L226.976 148.663L227.529 150.73L218.64 149.969L218.027 147.683L225.346 142.58L225.905 144.669L224.604 145.538ZM223.216 146.454L220.519 148.253L223.751 148.451L223.216 146.454ZM215.317 137.567L216.898 137.143L217.474 139.291L223.996 137.543L224.525 139.517L218.003 141.265L218.578 143.412L216.996 143.836L215.317 137.567ZM215.98 133.717L217.619 133.278L216.911 130.634L218.435 130.226L219.143 132.869L220.921 132.393L220.12 129.403L221.701 128.979L223.031 133.943L214.928 136.115L213.598 131.151L215.179 130.727L215.98 133.717ZM251.494 203.036L253.076 202.613L253.651 204.76L260.173 203.012L260.702 204.986L254.18 206.734L254.755 208.881L253.174 209.305L251.494 203.036ZM250.576 199.61L258.68 197.439L259.209 199.413L251.105 201.584L250.576 199.61ZM254.199 196.97C253.399 197.184 252.64 197.202 251.924 197.023C251.2 196.845 250.583 196.495 250.072 195.972C249.55 195.444 249.185 194.787 248.974 194.002C248.717 193.04 248.75 192.149 249.074 191.328C249.399 190.507 249.969 189.863 250.784 189.397L251.366 191.567C251.07 191.82 250.874 192.12 250.778 192.467C250.679 192.807 250.68 193.166 250.782 193.543C250.944 194.151 251.288 194.586 251.812 194.85C252.337 195.114 252.953 195.151 253.661 194.961C254.369 194.771 254.884 194.431 255.206 193.941C255.529 193.45 255.608 192.901 255.445 192.293C255.344 191.916 255.166 191.605 254.911 191.36C254.653 191.107 254.334 190.945 253.952 190.874L253.37 188.704C254.309 188.7 255.125 188.972 255.816 189.521C256.5 190.072 256.971 190.828 257.228 191.79C257.439 192.575 257.454 193.326 257.275 194.042C257.086 194.753 256.726 195.365 256.196 195.878C255.665 196.391 254.999 196.755 254.199 196.97ZM254.434 181.593L251.585 185.276L255.164 184.317L255.693 186.291L247.589 188.463L247.06 186.489L250.616 185.536L246.336 183.787L245.715 181.467L250.527 183.543L253.788 179.18L254.434 181.593ZM246.361 177.554L248 177.115L247.292 174.471L248.816 174.063L249.524 176.706L251.302 176.23L250.501 173.24L252.082 172.816L253.412 177.78L245.309 179.952L243.979 174.988L245.56 174.564L246.361 177.554ZM241.949 167.415L243.531 166.991L244.106 169.138L250.629 167.39L251.158 169.364L244.635 171.112L245.21 173.259L243.629 173.683L241.949 167.415Z" fill="#131D33"/>
</svg>
