<svg width="473" height="555" viewBox="0 0 473 555" fill="none" xmlns="http://www.w3.org/2000/svg">
<g filter="url(#filter0_d_641_13836)">
<path d="M193.107 206.314C192.298 206.026 191.455 205.731 190.635 205.428C190.367 205.329 190.231 205.031 190.33 204.763C190.428 204.499 190.719 204.362 190.984 204.454C190.987 204.456 190.991 204.457 190.995 204.458C191.807 204.76 192.636 205.067 193.446 205.337C194.546 205.718 195.688 206.097 196.841 206.462C197.114 206.548 197.264 206.838 197.178 207.111C197.092 207.383 196.801 207.534 196.529 207.447C195.367 207.08 194.216 206.698 193.107 206.314ZM184.89 203.114C184.877 203.109 184.864 203.104 184.852 203.099C182.89 202.24 180.995 201.334 179.222 200.405C178.968 200.272 178.871 199.96 179.003 199.707C179.135 199.454 179.447 199.355 179.701 199.489C181.454 200.406 183.326 201.302 185.266 202.151C185.528 202.265 185.647 202.57 185.533 202.832C185.424 203.081 185.142 203.201 184.89 203.114ZM202.469 209.191C202.214 209.103 202.068 208.831 202.139 208.567C202.215 208.292 202.499 208.129 202.774 208.204C204.712 208.731 206.73 209.24 208.772 209.717C209.059 209.787 209.223 210.06 209.158 210.339C209.093 210.617 208.815 210.789 208.537 210.725C206.483 210.244 204.453 209.732 202.503 209.202C202.491 209.199 202.48 209.195 202.469 209.191ZM214.548 212.024C214.307 211.94 214.159 211.69 214.21 211.433C214.267 211.153 214.539 210.972 214.819 211.028C216.799 211.425 218.845 211.805 220.903 212.157C221.191 212.206 221.374 212.473 221.326 212.754C221.278 213.035 221.011 213.225 220.729 213.176C218.662 212.823 216.604 212.441 214.615 212.042C214.592 212.037 214.569 212.031 214.548 212.024ZM173.919 197.331C173.882 197.318 173.845 197.301 173.81 197.278C171.991 196.116 170.278 194.892 168.719 193.639C168.497 193.46 168.461 193.135 168.641 192.912C168.819 192.69 169.145 192.654 169.368 192.833C170.897 194.063 172.579 195.266 174.366 196.408C174.607 196.561 174.677 196.881 174.524 197.122C174.392 197.327 174.14 197.408 173.919 197.331ZM164.264 189.574C164.192 189.549 164.126 189.509 164.069 189.452C162.604 187.992 161.186 186.437 159.855 184.829C159.672 184.609 159.703 184.283 159.924 184.101C160.143 183.919 160.469 183.95 160.651 184.169C161.961 185.752 163.357 187.283 164.798 188.719C165 188.92 165.001 189.248 164.8 189.45C164.656 189.596 164.445 189.637 164.264 189.574ZM156.353 180.028C156.252 179.993 156.161 179.927 156.096 179.831C154.926 178.118 153.821 176.327 152.811 174.509C152.672 174.26 152.762 173.945 153.012 173.806C153.261 173.667 153.576 173.757 153.715 174.007C154.71 175.797 155.799 177.561 156.95 179.248C157.111 179.484 157.05 179.806 156.814 179.967C156.674 180.063 156.503 180.08 156.353 180.028ZM150.326 169.194C150.195 169.149 150.083 169.052 150.023 168.916C149.179 167.013 148.414 165.054 147.751 163.092C147.659 162.822 147.804 162.529 148.075 162.437C148.347 162.346 148.639 162.491 148.73 162.761C149.384 164.693 150.137 166.622 150.968 168.497C151.083 168.758 150.965 169.063 150.705 169.179C150.58 169.234 150.445 169.236 150.326 169.194ZM146.36 157.453C146.199 157.397 146.069 157.262 146.026 157.083C145.543 155.04 145.16 152.971 144.888 150.933C144.85 150.65 145.049 150.39 145.332 150.352C145.615 150.314 145.876 150.513 145.913 150.796C146.181 152.8 146.557 154.835 147.032 156.844C147.098 157.122 146.926 157.401 146.648 157.466C146.549 157.491 146.45 157.484 146.36 157.453ZM144.739 145.171C144.541 145.102 144.397 144.917 144.392 144.695C144.34 142.571 144.411 140.465 144.606 138.436C144.633 138.151 144.886 137.943 145.17 137.971C145.453 137.997 145.662 138.25 145.635 138.534C145.445 140.523 145.374 142.587 145.426 144.67C145.432 144.955 145.207 145.193 144.921 145.2C144.857 145.201 144.796 145.191 144.739 145.171ZM145.951 132.855C145.703 132.769 145.556 132.509 145.617 132.248C145.942 130.875 146.333 129.526 146.78 128.238C147.012 127.568 147.263 126.904 147.525 126.265C147.633 126.001 147.943 125.875 148.2 125.983C148.465 126.092 148.591 126.394 148.482 126.658C148.227 127.279 147.983 127.925 147.757 128.577C147.321 129.831 146.94 131.146 146.624 132.486C146.558 132.764 146.28 132.936 146.001 132.87C145.984 132.866 145.967 132.861 145.951 132.855ZM404.494 214.138C404.175 214.027 403.856 213.913 403.538 213.796C403.27 213.697 403.133 213.4 403.231 213.132C403.33 212.865 403.604 212.714 403.895 212.825C405.857 213.549 407.839 214.143 409.772 214.589C410.06 214.656 410.224 214.931 410.16 215.209C410.096 215.487 409.818 215.661 409.54 215.597C407.879 215.214 406.181 214.723 404.494 214.138ZM397.856 211.335C397.835 211.328 397.815 211.319 397.794 211.309C395.966 210.399 394.131 209.369 392.34 208.249C392.098 208.098 392.025 207.778 392.176 207.536C392.327 207.294 392.646 207.219 392.888 207.373C394.651 208.475 396.456 209.488 398.255 210.384C398.511 210.511 398.615 210.822 398.487 211.077C398.37 211.312 398.098 211.419 397.856 211.335ZM415.612 216.527C415.396 216.452 415.248 216.239 415.266 216C415.287 215.715 415.536 215.501 415.821 215.523C417.91 215.68 419.962 215.653 421.921 215.443C422.205 215.413 422.459 215.618 422.49 215.902C422.52 216.186 422.315 216.44 422.031 216.471C420.01 216.688 417.895 216.716 415.743 216.554C415.697 216.551 415.654 216.541 415.612 216.527ZM387.34 204.775C387.29 204.757 387.241 204.732 387.197 204.698C386.161 203.914 385.131 203.088 384.132 202.243L382.259 201.005C382.021 200.847 381.956 200.526 382.113 200.288C382.271 200.05 382.593 199.986 382.83 200.142L384.728 201.398C384.745 201.409 384.762 201.421 384.777 201.434C385.769 202.274 386.793 203.095 387.821 203.874C388.049 204.047 388.094 204.371 387.921 204.598C387.783 204.781 387.546 204.846 387.34 204.775ZM150.678 121.445C150.64 121.432 150.604 121.415 150.569 121.392C150.328 121.239 150.258 120.919 150.412 120.678C151.554 118.89 152.862 117.225 154.3 115.73C154.498 115.523 154.824 115.516 155.031 115.715C155.237 115.913 155.244 116.24 155.046 116.446C153.654 117.893 152.388 119.504 151.283 121.235C151.152 121.441 150.899 121.522 150.678 121.445ZM377.201 197.631C377.16 197.617 377.121 197.597 377.084 197.573L371.911 194.138C371.673 193.98 371.608 193.659 371.765 193.421C371.923 193.183 372.247 193.12 372.482 193.276L377.656 196.711C377.894 196.869 377.958 197.19 377.801 197.428C377.667 197.629 377.418 197.706 377.201 197.631ZM427.856 215.141C427.71 215.09 427.587 214.974 427.535 214.816C427.444 214.545 427.59 214.252 427.861 214.162C429.796 213.515 431.642 212.647 433.348 211.581C433.59 211.43 433.909 211.502 434.061 211.745C434.212 211.988 434.138 212.306 433.896 212.458C432.121 213.567 430.2 214.47 428.189 215.143C428.077 215.18 427.96 215.177 427.856 215.141ZM366.852 190.763C366.812 190.75 366.773 190.73 366.736 190.706C365.041 189.584 363.314 188.442 361.556 187.283C361.318 187.126 361.252 186.805 361.409 186.567C361.566 186.328 361.889 186.263 362.125 186.419C363.884 187.579 365.612 188.721 367.306 189.843C367.545 190.001 367.61 190.321 367.452 190.56C367.319 190.761 367.069 190.839 366.852 190.763ZM356.485 183.929C356.445 183.916 356.407 183.897 356.37 183.873C354.662 182.754 352.929 181.621 351.173 180.479C350.934 180.323 350.866 180.003 351.022 179.763C351.178 179.523 351.499 179.456 351.738 179.612C353.495 180.756 355.229 181.889 356.938 183.008C357.176 183.164 357.243 183.485 357.087 183.724C356.953 183.927 356.703 184.005 356.485 183.929ZM159.227 112.574C159.127 112.539 159.036 112.473 158.971 112.378C158.809 112.143 158.869 111.821 159.104 111.66C160.807 110.492 162.662 109.471 164.617 108.626C164.88 108.513 165.184 108.633 165.297 108.896C165.41 109.158 165.29 109.463 165.027 109.576C163.133 110.394 161.337 111.382 159.689 112.513C159.549 112.609 159.377 112.626 159.227 112.574ZM346.077 177.157C346.038 177.143 346.001 177.126 345.965 177.103C344.244 175.991 342.503 174.873 340.744 173.748C340.503 173.594 340.432 173.274 340.586 173.033C340.74 172.793 341.062 172.724 341.3 172.876C343.062 174.002 344.804 175.122 346.526 176.234C346.766 176.388 346.835 176.708 346.68 176.949C346.548 177.153 346.296 177.233 346.077 177.157ZM438.279 208.641C438.209 208.616 438.142 208.576 438.085 208.519C437.882 208.318 437.881 207.991 438.082 207.788C439.467 206.394 440.751 204.799 441.899 203.049C442.056 202.81 442.375 202.743 442.615 202.9C442.854 203.057 442.92 203.378 442.764 203.617C441.578 205.424 440.25 207.073 438.817 208.517C438.672 208.663 438.462 208.704 438.279 208.641ZM335.614 170.469C335.577 170.456 335.541 170.439 335.507 170.417C333.771 169.319 332.02 168.217 330.254 167.112C330.012 166.961 329.939 166.642 330.09 166.4C330.241 166.157 330.559 166.083 330.803 166.236C332.57 167.341 334.323 168.444 336.06 169.544C336.301 169.696 336.373 170.016 336.22 170.257C336.089 170.463 335.836 170.546 335.614 170.469ZM325.087 163.885C325.052 163.873 325.017 163.857 324.984 163.836C323.233 162.754 321.469 161.673 319.694 160.591C319.451 160.443 319.373 160.125 319.522 159.881C319.67 159.637 319.988 159.562 320.232 159.708C322.009 160.791 323.774 161.873 325.527 162.956C325.77 163.106 325.845 163.425 325.695 163.668C325.566 163.878 325.311 163.963 325.087 163.885ZM170.534 107.64C170.373 107.584 170.243 107.45 170.2 107.272C170.133 106.995 170.304 106.716 170.582 106.648C172.109 106.279 173.714 105.988 175.351 105.784C175.819 105.725 176.291 105.672 176.765 105.624C177.051 105.595 177.303 105.802 177.332 106.086C177.361 106.37 177.154 106.624 176.87 106.653C176.404 106.7 175.939 106.753 175.479 106.811C173.88 107.01 172.314 107.294 170.824 107.654C170.725 107.678 170.624 107.671 170.534 107.64ZM314.483 157.427C314.449 157.415 314.417 157.4 314.385 157.381C312.617 156.321 310.84 155.262 309.054 154.207C308.808 154.062 308.726 153.745 308.872 153.499C309.017 153.254 309.33 153.17 309.58 153.317C311.368 154.373 313.148 155.432 314.918 156.495C315.163 156.642 315.242 156.959 315.095 157.204C314.966 157.418 314.709 157.505 314.483 157.427ZM303.778 151.108C303.747 151.097 303.717 151.083 303.688 151.066C301.898 150.028 300.102 148.996 298.301 147.971C298.052 147.829 297.966 147.514 298.107 147.265C298.249 147.017 298.565 146.932 298.812 147.072C300.616 148.098 302.414 149.132 304.206 150.171C304.453 150.315 304.537 150.631 304.394 150.878C304.268 151.096 304.007 151.187 303.778 151.108ZM445.108 198.376C445.095 198.371 445.081 198.366 445.067 198.36C444.806 198.244 444.689 197.938 444.805 197.678C445.305 196.55 445.774 195.357 446.198 194.131C446.447 193.413 446.687 192.669 446.909 191.919C446.991 191.645 447.278 191.489 447.552 191.57C447.828 191.653 447.982 191.939 447.901 192.213C447.673 192.978 447.429 193.737 447.175 194.47C446.741 195.722 446.261 196.943 445.749 198.096C445.64 198.344 445.36 198.463 445.108 198.376ZM292.976 144.961C292.947 144.951 292.92 144.939 292.893 144.924C291.086 143.917 289.275 142.919 287.461 141.93C287.21 141.793 287.118 141.479 287.254 141.228C287.391 140.978 287.704 140.884 287.955 141.022C289.773 142.012 291.587 143.012 293.397 144.021C293.646 144.16 293.735 144.475 293.596 144.724C293.473 144.947 293.209 145.042 292.976 144.961ZM182.84 106.27C182.641 106.2 182.496 106.012 182.493 105.789C182.489 105.503 182.716 105.268 183.002 105.264C185.014 105.232 187.113 105.278 189.241 105.399C189.527 105.416 189.744 105.659 189.728 105.944C189.711 106.229 189.467 106.447 189.182 106.431C187.079 106.311 185.006 106.266 183.018 106.298C182.955 106.299 182.896 106.289 182.84 106.27ZM282.078 139.024C282.053 139.016 282.029 139.005 282.004 138.992C280.178 138.021 278.35 137.062 276.521 136.115C276.268 135.984 276.168 135.672 276.3 135.418C276.431 135.164 276.742 135.064 276.997 135.196C278.829 136.144 280.66 137.106 282.49 138.079C282.742 138.213 282.838 138.525 282.704 138.778C282.583 139.006 282.315 139.106 282.078 139.024ZM271.073 133.331C271.052 133.324 271.031 133.315 271.01 133.304C269.14 132.365 267.269 131.44 265.451 130.557C265.194 130.432 265.087 130.123 265.212 129.866C265.336 129.609 265.641 129.504 265.903 129.627C267.725 130.513 269.6 131.439 271.474 132.381C271.729 132.509 271.832 132.82 271.704 133.075C271.586 133.309 271.314 133.415 271.073 133.331ZM195.221 106.951C194.996 106.873 194.848 106.648 194.877 106.402C194.911 106.118 195.168 105.916 195.452 105.949C197.451 106.187 199.525 106.489 201.617 106.849C201.904 106.899 202.088 107.164 202.039 107.446C201.991 107.727 201.723 107.916 201.442 107.868C199.367 107.512 197.311 107.211 195.329 106.977C195.292 106.971 195.256 106.963 195.221 106.951ZM259.905 127.906C259.889 127.901 259.872 127.894 259.855 127.886C257.967 127.001 256.072 126.131 254.221 125.299C253.961 125.182 253.845 124.876 253.962 124.615C254.079 124.355 254.384 124.242 254.646 124.355C256.501 125.19 258.401 126.062 260.294 126.949C260.553 127.071 260.664 127.378 260.543 127.637C260.429 127.879 260.153 127.992 259.905 127.906ZM207.449 109.037C207.205 108.952 207.058 108.697 207.114 108.438C207.175 108.159 207.45 107.982 207.729 108.043C209.7 108.473 211.736 108.959 213.783 109.489C214.063 109.563 214.226 109.843 214.155 110.119C214.083 110.396 213.801 110.562 213.525 110.49C211.49 109.964 209.466 109.481 207.509 109.054C207.489 109.049 207.469 109.043 207.449 109.037ZM248.581 122.817C248.569 122.813 248.558 122.809 248.546 122.804C246.624 121.979 244.7 121.174 242.829 120.412C242.564 120.304 242.437 120.003 242.544 119.738C242.652 119.474 242.952 119.342 243.219 119.455C245.096 120.219 247.026 121.026 248.954 121.854C249.216 121.967 249.338 122.27 249.225 122.533C249.117 122.783 248.835 122.905 248.581 122.817ZM219.463 112.134C219.204 112.044 219.059 111.766 219.137 111.5C219.218 111.226 219.506 111.069 219.78 111.15C221.714 111.72 223.712 112.342 225.718 112.999C225.981 113.099 226.137 113.38 226.049 113.651C225.96 113.922 225.667 114.07 225.396 113.982C223.4 113.328 221.412 112.71 219.486 112.142C219.479 112.14 219.471 112.137 219.463 112.134ZM237.082 118.141C237.076 118.139 237.072 118.137 237.066 118.135C235.112 117.387 233.156 116.663 231.255 115.986C230.987 115.89 230.846 115.595 230.942 115.326C231.038 115.058 231.33 114.918 231.599 115.011C231.6 115.011 231.602 115.012 231.603 115.012C233.512 115.692 235.474 116.418 237.436 117.17C237.703 117.272 237.836 117.571 237.734 117.838C237.634 118.099 237.345 118.232 237.082 118.141ZM448.366 186.467C448.147 186.391 447.999 186.173 448.021 185.932C448.2 183.934 448.225 181.876 448.096 179.813C448.078 179.528 448.295 179.283 448.58 179.264C448.864 179.247 449.111 179.463 449.129 179.748C449.261 181.863 449.235 183.974 449.051 186.024C449.025 186.309 448.775 186.519 448.49 186.493C448.447 186.489 448.405 186.48 448.366 186.467ZM447.62 174.126C447.453 174.068 447.32 173.926 447.283 173.741C446.882 171.775 446.342 169.783 445.678 167.819C445.586 167.548 445.731 167.255 446.002 167.164C446.273 167.072 446.565 167.217 446.657 167.488C447.336 169.492 447.887 171.527 448.296 173.534C448.352 173.814 448.172 174.087 447.892 174.144C447.799 174.163 447.705 174.155 447.62 174.126ZM443.669 162.395C443.543 162.351 443.433 162.258 443.371 162.127C442.503 160.294 441.517 158.476 440.44 156.724C440.291 156.481 440.367 156.162 440.61 156.013C440.853 155.864 441.171 155.939 441.322 156.183C442.418 157.966 443.422 159.817 444.306 161.685C444.428 161.943 444.318 162.251 444.059 162.373C443.932 162.434 443.793 162.437 443.669 162.395ZM437.164 151.856C437.075 151.825 436.993 151.77 436.929 151.69C435.648 150.079 434.295 148.507 432.911 147.018C432.717 146.809 432.729 146.481 432.938 146.287C433.147 146.093 433.474 146.104 433.669 146.314C435.071 147.822 436.44 149.415 437.738 151.046C437.916 151.27 437.88 151.595 437.656 151.773C437.512 151.887 437.326 151.912 437.164 151.856ZM298.144 103.044C296.715 102.549 295.296 102.028 293.926 101.498C293.659 101.394 293.527 101.095 293.63 100.829C293.733 100.562 294.05 100.439 294.299 100.533C296.178 101.262 298.144 101.966 300.114 102.622C300.399 102.698 300.532 103.005 300.442 103.275C300.352 103.546 300.059 103.693 299.788 103.603C299.239 103.42 298.69 103.234 298.144 103.044ZM305.709 105.43C305.451 105.341 305.305 105.064 305.382 104.799C305.461 104.525 305.747 104.366 306.021 104.445C307.932 104.993 309.943 105.529 311.998 106.04C312.276 106.113 312.445 106.389 312.375 106.666C312.307 106.943 312.026 107.112 311.749 107.044C309.682 106.53 307.659 105.99 305.736 105.439C305.727 105.436 305.718 105.433 305.709 105.43ZM288.221 99.1071C288.206 99.102 288.192 99.0964 288.176 99.0895C286.258 98.2217 284.374 97.3001 282.576 96.3492C282.323 96.2161 282.227 95.9029 282.36 95.6505C282.494 95.3985 282.808 95.2991 283.059 95.4352C284.838 96.3759 286.703 97.2882 288.603 98.1473C288.863 98.2649 288.978 98.5714 288.861 98.8311C288.75 99.0772 288.471 99.1938 288.221 99.1071ZM317.748 108.433C317.504 108.349 317.356 108.093 317.412 107.835C317.473 107.556 317.748 107.379 318.027 107.44C319.957 107.859 321.999 108.277 324.095 108.682C324.375 108.735 324.558 109.007 324.505 109.288C324.451 109.568 324.179 109.752 323.899 109.697C321.795 109.291 319.746 108.872 317.807 108.45C317.787 108.446 317.767 108.44 317.748 108.433ZM277.263 93.3034C277.227 93.2912 277.193 93.2748 277.16 93.2546C275.435 92.1901 273.738 91.0602 272.117 89.8978C271.886 89.7315 271.832 89.4085 271.998 89.1762C272.165 88.9444 272.488 88.8909 272.72 89.0576C274.321 90.2064 275.998 91.3226 277.703 92.3747C277.946 92.5246 278.021 92.843 277.872 93.0861C277.742 93.2961 277.486 93.381 277.263 93.3034ZM329.931 110.797C329.695 110.716 329.547 110.473 329.591 110.22C329.641 109.939 329.909 109.75 330.19 109.799C332.104 110.134 334.104 110.47 336.304 110.826C336.584 110.871 336.777 111.137 336.731 111.419C336.685 111.701 336.42 111.892 336.138 111.846C333.934 111.489 331.931 111.153 330.012 110.818C329.984 110.814 329.957 110.806 329.931 110.797ZM342.18 112.793C341.948 112.712 341.8 112.476 341.839 112.225C341.883 111.943 342.147 111.75 342.429 111.793C344.159 112.061 345.89 112.326 347.621 112.591L348.563 112.735C348.844 112.778 349.039 113.043 348.995 113.324C348.952 113.607 348.688 113.8 348.406 113.757L347.465 113.613C345.733 113.348 344.002 113.084 342.271 112.816C342.239 112.811 342.209 112.803 342.18 112.793ZM428.724 142.779C428.659 142.757 428.598 142.721 428.544 142.672C427.042 141.29 425.463 139.947 423.849 138.68C423.625 138.504 423.585 138.179 423.762 137.954C423.937 137.729 424.262 137.69 424.487 137.867C426.123 139.15 427.723 140.511 429.244 141.911C429.455 142.104 429.468 142.431 429.275 142.641C429.131 142.797 428.913 142.845 428.724 142.779ZM354.446 114.68C354.214 114.6 354.066 114.363 354.105 114.112C354.149 113.83 354.414 113.637 354.696 113.681C356.745 114.001 358.79 114.327 360.828 114.664C361.109 114.708 361.301 114.977 361.253 115.258C361.207 115.54 360.941 115.731 360.659 115.684C358.623 115.348 356.582 115.023 354.536 114.703C354.505 114.698 354.475 114.69 354.446 114.68ZM418.977 135.121C418.936 135.107 418.896 135.087 418.859 135.062C417.177 133.937 415.412 132.847 413.613 131.822C413.365 131.68 413.279 131.365 413.419 131.116C413.561 130.868 413.876 130.782 414.125 130.923C415.945 131.961 417.731 133.063 419.433 134.202C419.67 134.361 419.734 134.682 419.576 134.919C419.442 135.119 419.194 135.196 418.977 135.121ZM366.688 116.713C366.452 116.631 366.304 116.387 366.349 116.133C366.4 115.852 366.669 115.665 366.95 115.716C369.109 116.103 371.106 116.482 373.057 116.872C373.338 116.927 373.518 117.2 373.463 117.481C373.406 117.76 373.134 117.942 372.854 117.886C370.91 117.497 368.919 117.121 366.767 116.734C366.74 116.729 366.714 116.722 366.688 116.713ZM378.855 119.159C378.609 119.073 378.462 118.815 378.52 118.556C378.584 118.278 378.861 118.103 379.139 118.167C381.221 118.638 383.255 119.133 385.185 119.635C385.468 119.712 385.626 119.99 385.555 120.266C385.482 120.542 385.201 120.708 384.924 120.636C383.005 120.136 380.982 119.644 378.911 119.175C378.891 119.17 378.873 119.165 378.855 119.159ZM408.21 128.974C408.191 128.968 408.172 128.96 408.153 128.951C406.343 128.074 404.448 127.225 402.52 126.429C402.256 126.319 402.13 126.017 402.24 125.753C402.348 125.489 402.657 125.366 402.915 125.473C404.861 126.276 406.775 127.134 408.604 128.021C408.862 128.145 408.968 128.454 408.844 128.711C408.728 128.95 408.454 129.059 408.21 128.974ZM390.857 122.3C390.597 122.21 390.451 121.929 390.532 121.662C390.615 121.389 390.904 121.234 391.177 121.317C392.984 121.863 394.764 122.44 396.467 123.03L397.095 123.25C397.364 123.345 397.505 123.641 397.41 123.91C397.315 124.178 397.022 124.319 396.753 124.226C396.752 124.226 396.751 124.225 396.75 124.225L396.128 124.008C394.438 123.421 392.671 122.849 390.877 122.307C390.87 122.304 390.863 122.302 390.857 122.3Z" fill="#0CAF60"/>
<path d="M195.624 191.546C194.691 190.13 194.814 188.178 195.688 186.727C196.563 185.277 198.085 184.3 199.705 183.807C201.325 183.313 203.048 183.262 204.741 183.334C207.543 183.454 210.416 183.942 212.87 185.249C211.594 181.337 210.014 177.522 208.15 173.846C207.981 173.512 207.805 173.181 207.631 172.849C205.112 174.358 202.594 175.867 200.075 177.376C198.395 178.383 196.661 179.41 194.726 179.716C192.79 180.023 190.579 179.442 189.501 177.803C188.568 176.387 188.691 174.435 189.565 172.985C190.44 171.534 191.962 170.557 193.582 170.064C195.202 169.57 196.925 169.519 198.618 169.591C201.507 169.714 204.475 170.229 206.978 171.632C204.786 167.617 202.258 163.787 199.427 160.195C196.817 161.626 194.206 163.057 191.595 164.488C189.878 165.429 188.106 166.389 186.159 166.621C184.213 166.854 182.026 166.188 181.011 164.509C180.134 163.059 180.331 161.112 181.26 159.697C182.19 158.282 183.749 157.363 185.387 156.932C187.025 156.501 188.748 156.516 190.437 156.653C193.142 156.873 195.901 157.438 198.253 158.743C196.146 156.192 193.886 153.767 191.481 151.494C190.769 150.821 190.04 150.166 189.304 149.521C186.57 150.904 183.837 152.287 181.104 153.671C179.356 154.555 177.554 155.456 175.601 155.624C173.648 155.792 171.484 155.055 170.525 153.344C169.696 151.865 169.956 149.926 170.932 148.542C171.907 147.158 173.496 146.292 175.147 145.915C176.798 145.538 178.521 145.61 180.204 145.802C182.61 146.077 185.049 146.631 187.187 147.728C184.611 145.63 181.901 143.697 179.074 141.947C176.089 141.863 173.103 141.78 170.118 141.697C168.158 141.642 166.143 141.576 164.344 140.795C162.545 140.013 160.991 138.335 160.961 136.375C160.935 134.681 162.087 133.101 163.604 132.35C165.122 131.598 166.932 131.593 168.565 132.047C170.198 132.502 171.68 133.384 173.07 134.355C175.633 136.143 178.026 138.364 179.341 141.179C179.351 141.184 179.36 141.187 179.369 141.193C182.381 143.051 185.261 145.115 187.991 147.363C186.706 145.195 186.023 142.655 185.647 140.141C185.396 138.465 185.264 136.746 185.583 135.083C185.902 133.419 186.712 131.801 188.06 130.777C189.409 129.754 191.337 129.425 192.844 130.202C194.587 131.101 195.399 133.238 195.299 135.196C195.2 137.153 194.363 138.987 193.54 140.765C192.287 143.473 191.034 146.181 189.781 148.888C193.04 151.737 196.065 154.851 198.825 158.188C198.002 155.666 197.952 152.891 198.225 150.229C198.397 148.543 198.697 146.846 199.418 145.314C200.14 143.782 201.327 142.417 202.888 141.76C204.448 141.104 206.399 141.264 207.666 142.391C209.132 143.694 209.389 145.966 208.807 147.836C208.224 149.707 206.958 151.275 205.719 152.792C203.834 155.102 201.949 157.412 200.063 159.722C200.147 159.829 200.234 159.935 200.318 160.042C203.063 163.567 205.518 167.313 207.66 171.231C207.107 168.31 207.642 165.236 208.543 162.383C209.054 160.767 209.69 159.167 210.707 157.813C211.725 156.459 213.163 155.363 214.826 155.036C216.488 154.71 218.365 155.262 219.379 156.621C220.551 158.194 220.343 160.469 219.394 162.184C218.444 163.897 216.887 165.175 215.367 166.41C212.977 168.35 210.588 170.291 208.199 172.231C208.228 172.286 208.256 172.341 208.286 172.396L208.372 172.405C208.352 172.418 208.33 172.43 208.31 172.442C210.33 176.288 212.046 180.293 213.43 184.414C214.005 181.806 215.364 179.366 216.945 177.185C217.959 175.787 219.089 174.445 220.508 173.462C221.927 172.479 223.671 171.881 225.383 172.098C227.095 172.315 228.733 173.449 229.275 175.088C229.903 176.983 228.97 179.115 227.501 180.467C226.031 181.818 224.114 182.555 222.247 183.261C219.594 184.264 216.942 185.267 214.29 186.27C214.217 186.315 214.143 186.358 214.069 186.403C215.472 190.981 216.459 195.682 216.997 200.44C217.054 200.942 216.28 201.127 216.223 200.618C215.693 195.94 214.729 191.323 213.365 186.824C210.975 188.256 208.586 189.687 206.197 191.119C204.517 192.125 202.783 193.152 200.847 193.459C198.913 193.766 196.702 193.185 195.624 191.546Z" fill="#80DB47"/>
<path d="M353.476 305.982C354.706 304.189 357.51 304.123 359.289 305.366C361.068 306.609 361.991 308.76 362.52 310.873C363.376 314.29 363.427 317.581 363.328 321.022C364.761 318.086 366.299 315.202 367.923 312.375C368.997 310.507 370.114 308.66 371.27 306.838C367.255 304.043 364.1 300.026 362.348 295.458C361.685 293.727 361.258 291.645 362.311 290.12C363.542 288.337 366.346 288.27 368.124 289.506C369.903 290.743 370.826 292.881 371.355 294.982C372.243 298.509 372.263 301.902 372.15 305.466C375.776 299.89 379.796 294.566 384.248 289.632C380.81 286.254 378.387 281.852 377.396 277.134C377.015 275.319 376.924 273.196 378.206 271.856C379.704 270.291 382.483 270.67 384.043 272.173C385.603 273.676 386.175 275.933 386.364 278.092C386.671 281.588 386.2 284.833 385.558 288.203C390.333 283.075 395.755 278.194 402.099 275.171C402.231 275.108 402.366 275.052 402.499 274.989C399.52 271.133 397.715 266.376 397.405 261.512C397.287 259.661 397.499 257.547 398.959 256.404C400.665 255.069 403.361 255.841 404.691 257.551C406.021 259.261 406.265 261.577 406.144 263.74C405.932 267.551 404.851 270.936 403.607 274.485C411.03 271.193 419.091 269.255 426.39 265.714C423.318 261.823 421.455 256.988 421.14 252.04C421.021 250.189 421.234 248.075 422.694 246.932C424.4 245.597 427.097 246.369 428.426 248.079C429.756 249.789 430 252.105 429.879 254.268C429.661 258.182 428.527 261.646 427.24 265.3C429.048 264.382 430.805 263.359 432.488 262.178C435.896 259.788 438.759 256.691 441.057 253.18C436.953 250.201 433.801 245.926 432.185 241.117C431.595 239.36 431.256 237.262 432.372 235.782C433.676 234.052 436.481 234.104 438.206 235.413C439.931 236.723 440.763 238.899 441.203 241.02C442.011 244.909 441.792 248.594 441.483 252.515C445.075 246.772 447.191 239.999 447.726 233.401C444.359 230.265 441.885 226.173 440.699 221.725C440.222 219.933 440.017 217.818 441.225 216.412C442.637 214.769 445.433 214.999 447.071 216.415C448.71 217.832 449.402 220.056 449.706 222.201C450.192 225.622 449.911 228.84 449.464 232.182C449.514 232.297 449.541 232.43 449.532 232.583C449.202 238.209 447.714 243.742 445.339 248.844C444.815 249.97 444.247 251.081 443.639 252.171C447.136 249.377 451.402 247.545 455.843 246.969C457.682 246.73 459.805 246.804 461.041 248.186C462.485 249.801 461.891 252.542 460.272 253.981C458.652 255.42 456.357 255.814 454.191 255.835C450.15 255.874 446.523 254.912 442.664 253.827C441.287 256.056 439.703 258.154 437.844 259.996C435.029 262.785 431.796 264.918 428.347 266.681C432.855 265.685 437.646 265.974 441.993 267.536C443.738 268.162 445.594 269.197 446.062 270.991C446.61 273.087 444.83 275.255 442.732 275.796C440.635 276.337 438.413 275.64 436.476 274.671C432.764 272.812 429.922 270.211 426.894 267.398C421.121 270.141 414.831 271.989 408.911 274.214C407.047 274.914 405.218 275.661 403.437 276.504C408.272 275.175 413.514 275.363 418.236 277.052C419.982 277.677 421.839 278.71 422.31 280.503C422.861 282.598 421.084 284.768 418.987 285.312C416.891 285.856 414.667 285.162 412.729 284.195C408.931 282.299 406.041 279.626 402.931 276.743C401.043 277.661 399.216 278.698 397.475 279.924C394.291 282.165 391.365 284.766 388.623 287.525C387.893 288.258 387.178 289.006 386.472 289.762C390.722 288.146 395.424 287.722 399.891 288.583C401.712 288.933 403.705 289.67 404.444 291.37C405.308 293.357 403.883 295.773 401.894 296.631C399.905 297.488 397.602 297.143 395.538 296.482C391.726 295.263 388.607 293.237 385.318 291.02C380.969 295.841 377.067 301.082 373.537 306.531C377.422 303.806 382.104 302.225 386.848 302.066C388.701 302.004 390.808 302.281 391.906 303.775C393.189 305.52 392.336 308.192 390.587 309.469C388.837 310.747 386.515 310.92 384.357 310.734C380.261 310.381 376.689 309.036 372.879 307.557C372.416 308.283 371.959 309.012 371.509 309.744C369.042 313.764 366.747 317.911 364.69 322.171C368.515 319.575 373.078 318.072 377.699 317.918C379.552 317.856 381.659 318.133 382.758 319.627C384.041 321.372 383.188 324.044 381.438 325.321C379.689 326.599 377.366 326.772 375.208 326.586C371.225 326.243 367.738 324.961 364.044 323.531C361.758 328.415 359.79 333.446 358.247 338.607C357.925 339.682 356.28 339.109 356.601 338.036C358.16 332.825 360.157 327.749 362.469 322.818C358.44 320.006 355.271 315.958 353.515 311.351C352.85 309.61 352.423 307.517 353.476 305.982Z" fill="#80DB47"/>
<path d="M301.787 482.043L129.228 422.192C125.589 420.93 123.663 416.958 124.925 413.319L225.943 122.064C227.205 118.425 231.178 116.499 234.816 117.761L407.375 177.611C411.014 178.873 412.94 182.845 411.678 186.484L310.66 477.739C309.398 481.377 305.426 483.305 301.787 482.043Z" fill="white"/>
<path d="M405.515 155.542L249.932 101.579C239.367 97.9148 227.838 103.507 224.175 114.07L122.966 405.874C120.967 411.637 121.728 417.701 124.553 422.611C124.65 422.772 124.744 422.935 124.84 423.096C127.198 426.955 130.864 430.038 135.458 431.631L291.041 485.593C295.634 487.186 300.424 487.036 304.664 485.466C310.161 483.442 314.742 479.066 316.809 473.106L418.017 181.302C421.681 170.738 416.08 159.206 405.515 155.542ZM315.34 464.247C311.493 475.338 298.868 481.03 287.14 476.963L143.876 427.273C132.148 423.206 125.758 410.918 129.604 399.827L221.663 134.406C224.055 127.509 231.907 123.969 239.203 126.499L398.523 181.757C405.817 184.287 409.79 191.929 407.398 198.826L315.34 464.247Z" fill="#0CAF60" fill-opacity="0.5"/>
<path d="M257.827 116.648C256.649 120.043 252.936 121.844 249.539 120.666C246.142 119.488 244.341 115.774 245.518 112.378C246.697 108.98 250.41 107.18 253.808 108.358C257.205 109.536 259.005 113.249 257.827 116.648Z" fill="white"/>
<path d="M255.835 115.957C255.039 118.254 252.528 119.473 250.229 118.675C247.931 117.878 246.712 115.366 247.509 113.069C248.306 110.77 250.819 109.552 253.117 110.349C255.416 111.146 256.633 113.658 255.835 115.957Z" fill="#0CAF60"/>
<path d="M270.424 121.016C269.628 123.313 267.115 124.531 264.817 123.734C262.518 122.937 261.3 120.424 262.096 118.127C262.893 115.829 265.406 114.61 267.705 115.408C270.003 116.205 271.222 118.717 270.424 121.016Z" fill="white"/>
<path d="M308.011 247.677L268.229 233.879C265.598 232.967 262.308 235.562 260.881 239.676L259.772 242.874C258.345 246.988 259.322 251.063 261.953 251.975L301.734 265.773C304.366 266.686 307.656 264.09 309.083 259.977L310.192 256.778C311.619 252.665 310.642 248.59 308.011 247.677Z" fill="#F07560"/>
<path d="M376.594 207.448L265.114 168.782C264.5 168.569 264.175 167.899 264.388 167.285C264.601 166.671 265.271 166.346 265.885 166.559L377.365 205.224C377.979 205.437 378.304 206.107 378.091 206.721C377.878 207.335 377.208 207.661 376.594 207.448Z" fill="#D5D4D4"/>
<path d="M315.77 199.182L261.142 180.235C260.528 180.022 260.203 179.352 260.416 178.738C260.629 178.124 261.3 177.798 261.914 178.011L316.541 196.958C317.156 197.171 317.481 197.842 317.268 198.456C317.055 199.07 316.384 199.395 315.77 199.182Z" fill="#D5D4D4"/>
<path d="M356.73 213.388L322.694 201.583C322.08 201.37 321.755 200.7 321.968 200.085C322.181 199.471 322.851 199.146 323.465 199.359L357.501 211.164C358.115 211.377 358.44 212.048 358.227 212.662C358.014 213.276 357.344 213.601 356.73 213.388Z" fill="#D5D4D4"/>
<path d="M246.927 158.189L246.927 158.187L246.927 158.186L246.927 158.189Z" fill="#D5D4D4"/>
<path d="M247.281 177.196C247.288 177.113 247.293 177.031 247.289 176.95C247.288 176.903 247.282 176.857 247.277 176.81C247.268 176.735 247.257 176.662 247.24 176.59C247.23 176.543 247.217 176.497 247.203 176.451C247.181 176.38 247.156 176.313 247.127 176.246C247.108 176.202 247.09 176.159 247.068 176.116C247.033 176.047 246.991 175.983 246.948 175.918C246.924 175.883 246.903 175.846 246.877 175.812C246.808 175.722 246.731 175.637 246.646 175.559C246.628 175.542 246.606 175.528 246.587 175.511C246.518 175.453 246.449 175.396 246.371 175.347C246.373 175.349 246.374 175.353 246.376 175.356C246.245 175.272 246.105 175.197 245.952 175.144C244.909 174.782 243.771 175.334 243.409 176.377C243.194 176.996 243.308 177.646 243.65 178.15C243.646 178.148 243.641 178.147 243.638 178.144C243.649 178.161 243.663 178.174 243.674 178.19C243.699 178.225 243.726 178.257 243.753 178.29C243.802 178.35 243.854 178.408 243.91 178.462C243.942 178.493 243.974 178.522 244.007 178.551C244.069 178.604 244.137 178.652 244.207 178.698C244.239 178.719 244.27 178.742 244.304 178.762C244.41 178.823 244.522 178.877 244.642 178.918C245.685 179.28 246.823 178.728 247.185 177.686C247.227 177.563 247.254 177.44 247.272 177.317C247.278 177.277 247.277 177.237 247.281 177.196Z" fill="#D5D4D4"/>
<path d="M259.458 161.84C259.477 161.762 259.492 161.684 259.509 161.606C259.549 161.425 259.583 161.244 259.61 161.062C259.623 160.979 259.635 160.896 259.645 160.812C259.669 160.615 259.685 160.418 259.695 160.221C259.698 160.163 259.704 160.105 259.706 160.047C259.713 159.796 259.709 159.546 259.694 159.298C259.691 159.234 259.682 159.171 259.677 159.108C259.662 158.921 259.642 158.734 259.614 158.548C259.602 158.465 259.588 158.382 259.573 158.299C259.542 158.126 259.505 157.955 259.464 157.785C259.446 157.71 259.43 157.636 259.41 157.561C259.345 157.325 259.274 157.091 259.19 156.862C259.18 156.836 259.168 156.811 259.159 156.785C259.082 156.581 258.996 156.38 258.904 156.182C258.869 156.107 258.83 156.033 258.793 155.959C258.718 155.808 258.638 155.66 258.554 155.515C258.51 155.44 258.467 155.365 258.421 155.292C258.322 155.132 258.217 154.976 258.108 154.823C258.073 154.775 258.041 154.724 258.005 154.676C257.86 154.482 257.706 154.294 257.545 154.112C257.495 154.057 257.442 154.004 257.391 153.95C257.271 153.822 257.148 153.696 257.02 153.575C256.954 153.514 256.887 153.453 256.82 153.393C256.771 153.349 256.724 153.302 256.674 153.26C256.685 153.271 256.692 153.285 256.703 153.296C255.935 152.641 255.045 152.105 254.038 151.745C249.642 150.174 244.745 152.461 243.135 156.843C242.513 158.535 242.458 160.292 242.874 161.91L242.875 161.91L242.874 161.911L242.875 161.913C244.29 165.608 245.399 169.674 245.98 173.37C246.04 173.751 246.506 173.907 246.781 173.637C249.348 171.12 253.403 168.69 256.569 166.418C257.757 165.45 258.698 164.151 259.237 162.598C259.324 162.347 259.395 162.093 259.458 161.84ZM252.437 165.058C251.46 165.296 250.405 165.266 249.384 164.912C248.422 164.578 247.613 164 247.005 163.271C245.827 161.86 245.398 159.884 246.043 158.022C247.023 155.197 250.108 153.702 252.933 154.682C253.199 154.774 253.449 154.89 253.689 155.018C253.729 155.038 253.77 155.059 253.81 155.081C254.042 155.211 254.262 155.357 254.468 155.516C256.258 156.899 257.057 159.316 256.275 161.571C255.649 163.375 254.164 164.637 252.437 165.058Z" fill="#D5D4D4"/>
<path d="M363.587 244.949L252.107 206.284C251.493 206.071 251.168 205.4 251.381 204.786C251.594 204.172 252.265 203.847 252.879 204.06L364.358 242.725C364.972 242.938 365.297 243.609 365.084 244.223C364.871 244.837 364.201 245.162 363.587 244.949Z" fill="#D5D4D4"/>
<path d="M302.763 236.683L248.136 217.736C247.521 217.523 247.196 216.853 247.409 216.239C247.622 215.624 248.293 215.299 248.907 215.512L303.535 234.459C304.149 234.672 304.474 235.343 304.261 235.957C304.048 236.571 303.377 236.896 302.763 236.683Z" fill="#D5D4D4"/>
<path d="M343.723 250.889L309.687 239.084C309.073 238.871 308.748 238.201 308.961 237.587C309.174 236.973 309.844 236.648 310.459 236.861L344.494 248.666C345.108 248.879 345.434 249.549 345.221 250.163C345.008 250.777 344.337 251.102 343.723 250.889Z" fill="#D5D4D4"/>
<path d="M233.92 195.689L233.921 195.687L233.92 195.687L233.92 195.689Z" fill="#D5D4D4"/>
<path d="M234.275 214.696C234.281 214.613 234.286 214.531 234.283 214.449C234.281 214.402 234.275 214.356 234.27 214.309C234.262 214.235 234.25 214.162 234.234 214.089C234.223 214.042 234.211 213.996 234.197 213.95C234.175 213.88 234.149 213.812 234.121 213.745C234.102 213.701 234.084 213.657 234.062 213.615C234.027 213.547 233.985 213.482 233.941 213.418C233.917 213.382 233.897 213.345 233.871 213.312C233.801 213.221 233.725 213.136 233.64 213.059C233.621 213.042 233.6 213.027 233.581 213.011C233.512 212.952 233.442 212.895 233.365 212.846C233.366 212.849 233.367 212.852 233.37 212.855C233.238 212.771 233.099 212.696 232.945 212.643C231.903 212.281 230.764 212.833 230.403 213.876C230.188 214.495 230.301 215.145 230.643 215.649C230.64 215.647 230.635 215.646 230.632 215.644C230.642 215.66 230.657 215.674 230.668 215.69C230.693 215.724 230.72 215.756 230.747 215.789C230.796 215.849 230.848 215.907 230.904 215.961C230.935 215.992 230.967 216.022 231.001 216.05C231.063 216.103 231.131 216.152 231.2 216.197C231.233 216.218 231.264 216.241 231.297 216.261C231.404 216.322 231.516 216.376 231.636 216.418C232.678 216.78 233.817 216.228 234.178 215.185C234.22 215.063 234.248 214.94 234.266 214.817C234.271 214.776 234.271 214.736 234.275 214.696Z" fill="#D5D4D4"/>
<path d="M246.451 199.34C246.471 199.262 246.486 199.185 246.503 199.107C246.542 198.926 246.576 198.744 246.604 198.563C246.616 198.48 246.629 198.396 246.639 198.313C246.662 198.115 246.679 197.918 246.688 197.721C246.691 197.664 246.697 197.606 246.699 197.548C246.707 197.296 246.702 197.046 246.688 196.798C246.684 196.734 246.676 196.672 246.671 196.609C246.656 196.421 246.635 196.235 246.608 196.049C246.595 195.965 246.581 195.883 246.566 195.8C246.536 195.626 246.498 195.455 246.457 195.285C246.439 195.211 246.423 195.136 246.403 195.062C246.339 194.825 246.267 194.592 246.183 194.362C246.174 194.336 246.162 194.311 246.152 194.286C246.075 194.081 245.99 193.88 245.897 193.682C245.862 193.607 245.824 193.533 245.787 193.459C245.711 193.309 245.632 193.161 245.547 193.015C245.503 192.94 245.461 192.865 245.415 192.792C245.316 192.632 245.211 192.477 245.101 192.324C245.067 192.275 245.034 192.224 244.998 192.176C244.853 191.982 244.7 191.795 244.538 191.613C244.489 191.557 244.436 191.505 244.385 191.45C244.265 191.322 244.141 191.197 244.013 191.076C243.948 191.014 243.881 190.954 243.814 190.894C243.764 190.85 243.718 190.803 243.667 190.76C243.678 190.772 243.686 190.785 243.697 190.797C242.929 190.141 242.038 189.605 241.032 189.245C236.636 187.674 231.739 189.961 230.128 194.343C229.507 196.035 229.452 197.792 229.867 199.41L229.868 199.41L229.868 199.411L229.869 199.413C231.284 203.108 232.393 207.173 232.973 210.869C233.033 211.25 233.5 211.406 233.775 211.136C236.341 208.619 240.397 206.189 243.563 203.918C244.75 202.949 245.692 201.65 246.23 200.097C246.318 199.847 246.389 199.594 246.451 199.34ZM239.43 202.558C238.453 202.797 237.398 202.766 236.378 202.412C235.416 202.078 234.607 201.499 233.998 200.771C232.821 199.36 232.391 197.385 233.037 195.522C234.017 192.697 237.101 191.202 239.927 192.182C240.192 192.274 240.442 192.39 240.683 192.517C240.723 192.538 240.764 192.559 240.803 192.581C241.035 192.711 241.256 192.857 241.462 193.016C243.252 194.399 244.05 196.816 243.268 199.071C242.642 200.876 241.158 202.138 239.43 202.558Z" fill="#D5D4D4"/>
<path d="M349.881 319.944L201.22 268.383C196.327 266.685 193.736 261.342 195.433 256.449L198.436 247.792C200.133 242.899 205.475 240.307 210.369 242.005L359.03 293.566C363.923 295.263 366.514 300.606 364.817 305.499L361.815 314.156C360.117 319.05 354.774 321.641 349.881 319.944Z" fill="#0CAF60"/>
<path d="M231.954 260.605C225.164 258.25 217.749 261.846 215.394 268.637L213.935 272.843L250.796 285.628L256.52 269.126L231.954 260.605Z" fill="#9EDFBF"/>
<path d="M332.109 295.343L232.029 260.631C234.583 262.095 236.564 264.28 237.798 266.825C239.406 270.14 239.75 274.065 238.447 277.82L183.603 435.947L289.113 471.897L342.743 317.272C345.862 308.28 341.101 298.461 332.109 295.343Z" fill="#9EDFBF"/>
<path d="M199.917 435.93L197.02 444.283C195.649 448.235 191.387 450.362 187.424 449.107C187.355 449.087 187.286 449.064 187.214 449.039C185.204 448.342 183.668 446.898 182.806 445.12C182.119 443.703 181.865 442.07 182.151 440.447C182.22 440.042 182.324 439.634 182.462 439.234L185.36 430.88L199.917 435.93Z" fill="#8AC9FF"/>
<path d="M295.358 469.031L295.337 469.042L295.333 469.022L295.358 469.031Z" fill="#488CC7"/>
<path d="M288.544 466.668L288.527 466.681L288.516 466.659L288.544 466.668Z" fill="#488CC7"/>
<path d="M281.727 464.304L281.711 464.317L281.701 464.295L281.727 464.304Z" fill="#488CC7"/>
<path d="M274.915 461.941L274.894 461.952L274.889 461.932L274.915 461.941Z" fill="#488CC7"/>
<path d="M268.1 459.578L268.084 459.59L268.074 459.569L268.1 459.578Z" fill="#488CC7"/>
<path d="M261.289 457.215L261.268 457.226L261.263 457.206L261.289 457.215Z" fill="#488CC7"/>
<path d="M254.473 454.851L254.457 454.863L254.447 454.842L254.473 454.851Z" fill="#488CC7"/>
<path d="M247.657 452.487L247.641 452.499L247.631 452.478L247.657 452.487Z" fill="#488CC7"/>
<path d="M240.845 450.124L240.825 450.135L240.82 450.115L240.845 450.124Z" fill="#488CC7"/>
<path d="M234.031 447.761L234.014 447.774L234.003 447.752L234.031 447.761Z" fill="#488CC7"/>
<path d="M227.22 445.399L227.198 445.411L227.192 445.39L227.22 445.399Z" fill="#488CC7"/>
<path d="M220.403 443.035L220.387 443.047L220.376 443.026L220.403 443.035Z" fill="#488CC7"/>
<path d="M213.586 440.67L213.57 440.683L213.56 440.661L213.586 440.67Z" fill="#488CC7"/>
<path d="M206.775 438.308L206.754 438.319L206.749 438.299L206.775 438.308Z" fill="#488CC7"/>
<path d="M302.148 471.402L300.709 475.552C298.51 481.89 291.593 485.241 285.259 483.045L187.212 449.038C187.287 449.064 187.356 449.088 187.423 449.106C191.387 450.361 195.651 448.236 197.021 444.285L199.919 435.929L199.933 435.934L202.014 440.972L206.753 438.315L208.83 443.336L213.569 440.679L215.645 445.7L220.385 443.043L222.456 448.063L227.196 445.405L229.272 450.427L234.012 447.769L236.083 452.789L240.823 450.132L242.899 455.153L247.638 452.496L249.715 457.517L254.454 454.86L256.526 459.879L261.265 457.222L263.342 462.243L268.081 459.586L270.153 464.606L274.892 461.948L276.969 466.969L281.708 464.312L283.784 469.333L288.524 466.676L290.596 471.696L295.335 469.039L297.411 474.06L302.148 471.402Z" fill="#9EDFBF"/>
<path d="M206.775 438.308L206.754 438.318L206.749 438.299L206.775 438.308Z" fill="#70BDFF"/>
<path d="M206.775 438.308L206.754 438.318L206.749 438.299L206.775 438.308Z" fill="#70BDFF"/>
<path d="M213.586 440.67L213.57 440.682L213.561 440.661L213.586 440.67Z" fill="#70BDFF"/>
<path d="M213.586 440.67L213.57 440.682L213.561 440.661L213.586 440.67Z" fill="#70BDFF"/>
<path d="M220.403 443.034L220.386 443.046L220.376 443.025L220.403 443.034Z" fill="#70BDFF"/>
<path d="M220.403 443.034L220.386 443.046L220.376 443.025L220.403 443.034Z" fill="#70BDFF"/>
<path d="M227.22 445.398L227.198 445.41L227.192 445.389L227.22 445.398Z" fill="#70BDFF"/>
<path d="M227.22 445.398L227.198 445.41L227.192 445.389L227.22 445.398Z" fill="#70BDFF"/>
<path d="M234.031 447.761L234.014 447.774L234.003 447.751L234.031 447.761Z" fill="#70BDFF"/>
<path d="M234.031 447.761L234.014 447.774L234.003 447.751L234.031 447.761Z" fill="#70BDFF"/>
<path d="M240.845 450.124L240.824 450.135L240.819 450.115L240.845 450.124Z" fill="#70BDFF"/>
<path d="M240.845 450.124L240.824 450.135L240.819 450.115L240.845 450.124Z" fill="#70BDFF"/>
<path d="M247.656 452.487L247.64 452.499L247.63 452.478L247.656 452.487Z" fill="#70BDFF"/>
<path d="M247.656 452.487L247.64 452.499L247.63 452.478L247.656 452.487Z" fill="#70BDFF"/>
<path d="M254.473 454.85L254.457 454.862L254.446 454.841L254.473 454.85Z" fill="#70BDFF"/>
<path d="M254.473 454.85L254.457 454.862L254.446 454.841L254.473 454.85Z" fill="#70BDFF"/>
<path d="M261.289 457.215L261.268 457.225L261.263 457.206L261.289 457.215Z" fill="#70BDFF"/>
<path d="M261.289 457.215L261.268 457.225L261.263 457.206L261.289 457.215Z" fill="#70BDFF"/>
<path d="M268.1 459.577L268.084 459.589L268.074 459.568L268.1 459.577Z" fill="#70BDFF"/>
<path d="M268.1 459.577L268.084 459.589L268.074 459.568L268.1 459.577Z" fill="#70BDFF"/>
<path d="M274.915 461.941L274.894 461.952L274.889 461.932L274.915 461.941Z" fill="#70BDFF"/>
<path d="M274.915 461.941L274.894 461.952L274.889 461.932L274.915 461.941Z" fill="#70BDFF"/>
<path d="M281.727 464.303L281.711 464.315L281.701 464.294L281.727 464.303Z" fill="#70BDFF"/>
<path d="M281.727 464.303L281.711 464.315L281.701 464.294L281.727 464.303Z" fill="#70BDFF"/>
<path d="M288.544 466.668L288.527 466.681L288.516 466.658L288.544 466.668Z" fill="#70BDFF"/>
<path d="M288.544 466.668L288.527 466.681L288.516 466.658L288.544 466.668Z" fill="#70BDFF"/>
<path d="M295.358 469.031L295.337 469.041L295.333 469.022L295.358 469.031Z" fill="#70BDFF"/>
<path d="M295.358 469.031L295.337 469.041L295.333 469.022L295.358 469.031Z" fill="#70BDFF"/>
<path d="M302.166 471.392L302.148 471.402L302.153 471.388L302.166 471.392Z" fill="#70BDFF"/>
<path d="M314.438 329.4L256.178 309.193C254.974 308.776 254.337 307.461 254.754 306.258L255.493 304.128C255.911 302.925 257.225 302.287 258.429 302.705L316.688 322.911C317.891 323.329 318.529 324.643 318.111 325.847L317.373 327.976C316.956 329.18 315.641 329.818 314.438 329.4Z" fill="white"/>
<path d="M308.538 312.739L273.615 300.627C273.254 300.502 273.063 300.108 273.188 299.746L273.41 299.107C273.535 298.746 273.929 298.554 274.291 298.68L309.213 310.792C309.574 310.918 309.766 311.312 309.64 311.673L309.419 312.312C309.293 312.674 308.899 312.865 308.538 312.739Z" fill="white"/>
<path d="M297.687 344.55L235.627 323.026C235.356 322.932 235.213 322.636 235.307 322.365L235.473 321.886C235.567 321.615 235.863 321.472 236.134 321.566L298.193 343.09C298.464 343.184 298.608 343.48 298.514 343.751L298.347 344.23C298.253 344.501 297.958 344.644 297.687 344.55Z" fill="white"/>
<path d="M258.394 336.056L234.052 327.613C233.774 327.517 233.626 327.213 233.723 326.934L233.893 326.442C233.99 326.164 234.294 326.016 234.572 326.113L258.915 334.556C259.193 334.652 259.341 334.956 259.244 335.235L259.073 335.727C258.977 336.005 258.673 336.153 258.394 336.056Z" fill="white"/>
<path d="M291.437 362.571L229.377 341.046C229.106 340.952 228.963 340.657 229.057 340.386L229.223 339.907C229.317 339.636 229.613 339.492 229.884 339.586L291.943 361.111C292.214 361.205 292.357 361.5 292.263 361.771L292.097 362.251C292.003 362.522 291.708 362.665 291.437 362.571Z" fill="white"/>
<path d="M252.144 354.077L227.802 345.634C227.523 345.537 227.376 345.233 227.472 344.955L227.643 344.462C227.74 344.184 228.044 344.036 228.322 344.133L252.664 352.576C252.943 352.672 253.09 352.976 252.994 353.255L252.823 353.747C252.726 354.026 252.422 354.173 252.144 354.077Z" fill="white"/>
<path d="M285.187 380.591L223.127 359.067C222.856 358.973 222.713 358.677 222.807 358.406L222.973 357.927C223.067 357.656 223.363 357.513 223.634 357.607L285.693 379.131C285.964 379.225 286.107 379.521 286.013 379.792L285.847 380.271C285.753 380.542 285.458 380.685 285.187 380.591Z" fill="white"/>
<path d="M245.894 372.097L221.551 363.654C221.273 363.558 221.125 363.254 221.222 362.975L221.393 362.483C221.489 362.204 221.793 362.057 222.072 362.153L246.414 370.596C246.693 370.693 246.84 370.997 246.743 371.275L246.573 371.768C246.476 372.047 246.172 372.194 245.894 372.097Z" fill="white"/>
<path d="M278.937 398.611L216.877 377.086C216.606 376.992 216.463 376.697 216.557 376.426L216.723 375.947C216.817 375.675 217.113 375.532 217.384 375.626L279.443 397.151C279.714 397.245 279.857 397.54 279.763 397.811L279.597 398.291C279.503 398.562 279.208 398.705 278.937 398.611Z" fill="white"/>
<path d="M239.644 390.117L215.301 381.674C215.023 381.578 214.875 381.274 214.972 380.995L215.143 380.503C215.239 380.224 215.543 380.077 215.822 380.173L240.164 388.616C240.443 388.713 240.59 389.017 240.493 389.295L240.323 389.788C240.226 390.067 239.922 390.214 239.644 390.117Z" fill="white"/>
<path d="M316.181 350.966L310.24 348.905C309.969 348.811 309.826 348.516 309.92 348.244L310.086 347.765C310.18 347.495 310.475 347.351 310.746 347.445L316.687 349.505C316.958 349.599 317.101 349.895 317.007 350.166L316.841 350.645C316.747 350.916 316.451 351.059 316.181 350.966Z" fill="white"/>
<path d="M323.089 353.36L320.46 352.448C320.19 352.354 320.046 352.059 320.14 351.788L320.306 351.308C320.4 351.038 320.696 350.894 320.967 350.988L323.595 351.9C323.867 351.994 324.01 352.29 323.916 352.56L323.75 353.04C323.656 353.311 323.36 353.454 323.089 353.36Z" fill="white"/>
<path d="M309.931 368.985L303.99 366.925C303.719 366.831 303.576 366.535 303.67 366.264L303.836 365.785C303.93 365.514 304.225 365.371 304.496 365.465L310.437 367.525C310.708 367.619 310.851 367.915 310.757 368.186L310.591 368.665C310.497 368.936 310.201 369.079 309.931 368.985Z" fill="white"/>
<path d="M316.838 371.381L314.21 370.47C313.939 370.376 313.795 370.08 313.889 369.809L314.055 369.33C314.149 369.059 314.445 368.915 314.716 369.009L317.345 369.921C317.616 370.015 317.759 370.311 317.665 370.582L317.499 371.061C317.405 371.332 317.109 371.475 316.838 371.381Z" fill="white"/>
<path d="M303.68 387.007L297.739 384.946C297.468 384.852 297.325 384.557 297.419 384.286L297.585 383.806C297.679 383.536 297.975 383.392 298.246 383.486L304.187 385.547C304.458 385.641 304.601 385.936 304.507 386.207L304.341 386.686C304.246 386.957 303.951 387.101 303.68 387.007Z" fill="white"/>
<path d="M310.589 389.401L307.96 388.489C307.689 388.396 307.546 388.1 307.64 387.829L307.806 387.35C307.9 387.079 308.196 386.935 308.467 387.029L311.095 387.941C311.366 388.035 311.51 388.33 311.416 388.602L311.249 389.081C311.155 389.352 310.859 389.495 310.589 389.401Z" fill="white"/>
<path d="M297.43 405.026L291.489 402.965C291.218 402.871 291.075 402.576 291.169 402.305L291.335 401.826C291.429 401.555 291.725 401.411 291.996 401.505L297.937 403.566C298.208 403.66 298.351 403.955 298.257 404.226L298.091 404.706C297.996 404.977 297.701 405.12 297.43 405.026Z" fill="white"/>
<path d="M304.339 407.42L301.71 406.509C301.439 406.415 301.295 406.119 301.39 405.848L301.556 405.369C301.65 405.098 301.946 404.955 302.216 405.048L304.845 405.96C305.116 406.054 305.259 406.35 305.165 406.621L304.999 407.1C304.905 407.371 304.609 407.514 304.339 407.42Z" fill="white"/>
<path d="M269.856 424.792L207.797 403.267C207.525 403.173 207.382 402.878 207.476 402.607L207.642 402.128C207.736 401.857 208.032 401.713 208.303 401.807L270.363 423.332C270.633 423.426 270.777 423.721 270.683 423.993L270.517 424.472C270.423 424.743 270.127 424.886 269.856 424.792Z" fill="white"/>
<path d="M230.563 416.298L206.22 407.855C205.942 407.759 205.795 407.455 205.891 407.176L206.062 406.684C206.159 406.405 206.462 406.258 206.741 406.355L231.083 414.797C231.362 414.894 231.509 415.198 231.413 415.476L231.242 415.969C231.145 416.247 230.841 416.395 230.563 416.298Z" fill="white"/>
<path d="M288.35 431.207L282.409 429.146C282.138 429.052 281.995 428.757 282.089 428.486L282.255 428.007C282.349 427.736 282.644 427.592 282.915 427.686L288.856 429.747C289.127 429.841 289.271 430.136 289.177 430.407L289.01 430.887C288.916 431.157 288.62 431.301 288.35 431.207Z" fill="white"/>
<path d="M295.257 433.604L292.629 432.692C292.358 432.598 292.214 432.302 292.308 432.031L292.475 431.552C292.569 431.281 292.865 431.138 293.135 431.232L295.764 432.143C296.035 432.238 296.178 432.533 296.084 432.804L295.918 433.283C295.824 433.554 295.528 433.698 295.257 433.604Z" fill="white"/>
<path d="M300.382 422.028L211.44 391.18L211.224 391.802L300.166 422.65L300.382 422.028Z" fill="white"/>
<path d="M94.3617 353.232C91.7891 357.702 89.7989 361.809 88.2299 365.711C84.2151 375.677 79.7818 391.544 78.4628 402.015L83.2547 402.881C83.2547 402.881 97.8438 377.866 105.05 364.997C106.888 361.735 108.438 358.793 109.462 356.531C115.343 343.631 119.774 303.44 120.065 300.839L120.075 300.739L120.079 300.702L102.296 292.185C84.4116 315.972 94.1696 326.203 94.3617 353.232Z" fill="#F1CCCD"/>
<path d="M92.1094 328.637C92.9131 335.563 93.5042 343.02 93.5771 353.005C89.5196 357.931 79.0113 387.913 77.8721 397.135C81.0588 398.847 84.3204 399.899 87.631 400.52C89.4693 397.258 107.64 361.502 108.664 359.24C114.545 346.339 119.774 303.44 120.065 300.84L120.074 300.739L120.079 300.702L102.296 292.185C91.0096 307.19 90.7324 316.797 92.1094 328.637Z" fill="#060606"/>
<path d="M49.338 395.736L45.7715 380.214C45.7715 380.214 59.0566 368.499 69.0776 361.121C71.4627 359.35 73.6579 357.841 75.4531 356.782C88.2881 349.239 111.767 296.93 111.767 296.93L96.6866 291.699C80.5921 299.916 77.6877 317.907 71.528 334.54C69.3933 340.305 65.8035 345.333 61.3404 349.262C60.4415 350.054 59.5704 350.869 58.721 351.719C52.7973 357.657 47.8502 365.314 41.1968 378.402L35.6741 382.244L49.338 395.736Z" fill="#F1CCCD"/>
<path d="M41.1697 372.439C43.4108 375.615 46.394 377.977 49.7589 379.918C52.1437 378.149 78.1522 354.705 80.6214 352.714C92.2096 343.367 112.967 297.108 112.967 297.108L97.3333 291.912L96.687 291.7C81.1313 299.642 77.8972 316.715 72.1363 332.868C69.7855 339.459 65.7817 342.586 61.0007 347.285C47.4937 360.559 41.8569 371.749 41.1697 372.439Z" fill="#060606"/>
<path d="M83.7705 402.287C89.8204 407.708 97.7707 409.993 95.8618 417.387L73.879 409.762C74.6338 406.611 76.1202 403.09 78.2782 400.466L83.7705 402.287Z" fill="#222222"/>
<path d="M46.2121 380.312C49.5157 388.106 55.7755 394.342 51.2978 400.451L34.687 382.269C36.5943 379.033 39.0244 377.263 41.8401 376.749L46.2121 380.312Z" fill="#222222"/>
<path d="M170.113 263.641C170.113 263.641 155.003 285.975 147.967 284.848C144.782 284.337 141.408 282.072 138.442 279.335C133.427 274.706 129.582 268.735 129.826 267.681L131.768 247.311C134.554 250.333 149.379 269.799 150.506 271.586C154.843 268.842 165.002 261.201 165.519 260.538C165.519 260.538 166.74 254.525 168.5 253.463C170.062 252.526 168.423 257.152 169.067 256.789C169.772 256.388 173.913 254.659 174.82 257.279C176.829 263.11 170.113 263.641 170.113 263.641Z" fill="#F9CBCB"/>
<path d="M148.338 267.533C145.774 272.079 140.165 277.269 138.554 280.114C133.538 275.486 126.717 271.646 126.961 270.592L131.597 246.709C134.384 249.731 143.295 260.413 148.338 267.533Z" fill="#FFC95E"/>
<path d="M99.6307 252.64C96.0108 263.55 92.1557 283.307 90.8221 290.432C90.6286 291.465 90.8767 292.5 91.4602 293.297C91.7762 293.734 92.2023 294.111 92.7054 294.374C97.3199 296.784 101.947 298.831 106.59 300.428C110.767 301.877 114.951 302.975 119.153 303.66C120.793 303.926 122.409 303.095 123.119 301.596C125.45 296.663 127.742 284.862 131.795 274.014C134.364 267.153 138.336 248.688 126.381 241.419L118.835 238.725C109.583 237.982 103.776 243.239 101.616 247.573C100.969 248.855 100.301 250.596 99.6307 252.64Z" fill="#FFBA30"/>
<path d="M126.338 233.924C123.609 233.831 122.186 234.716 119.528 232.199C115.484 228.369 114.315 218.664 121.986 217.119C122.882 215.958 123.503 215.6 125.308 215.817C127.112 216.035 128.579 217.362 130.906 218.125C133.233 218.887 137.331 217.641 138.182 221.704C139.032 225.767 133.124 226.649 130.043 227.436C126.962 228.223 126.784 231.363 126.338 233.924Z" fill="#222222"/>
<path d="M118.722 238.707C122.219 244.319 126.414 247.74 126.382 241.418L127.57 235.878L128.072 233.547L121.977 231.433L121.379 232.779L118.722 238.707Z" fill="#F9CBCB"/>
<path d="M120.949 233.737C121.827 236.072 125.795 238.036 127.19 237.649L128.072 233.546L122.835 228.847L120.949 233.737Z" fill="#F0B4B4"/>
<path d="M134.89 223.976C134.915 227.527 133.59 234.898 130.006 236.566C127.737 237.622 121.794 234.848 122.105 229.887C120.992 228.295 120.812 225.292 122.594 224.576C123.865 224.066 124.334 226.741 126.166 226.961C126.861 227.044 126.374 222.038 128.65 221.989C130.927 221.942 132.499 224.303 134.89 223.976Z" fill="#F9CBCB"/>
<path d="M134.515 351.274C162.701 318.126 167.048 306.588 207.61 288.994C209.024 288.381 209.275 288.42 208.29 286.495C195.726 261.957 189.369 244.973 164.085 230.462C162.102 229.323 162.208 229.814 161.532 231.136C142.157 269.078 117.849 285.352 90.7571 316.246C89.813 317.322 90.0442 317.944 91.0945 318.788C104.481 329.542 118.407 340.706 131.85 351.4C132.904 352.24 133.533 352.429 134.515 351.274Z" fill="#739136"/>
<path d="M128.776 344.008C119.14 336.199 109.463 328.44 99.7439 320.735C101.369 318.404 101.068 316.185 99.0613 314.216C98.8556 314.014 98.6124 313.91 98.3813 313.753C122.146 287.575 144.987 271.708 161.631 239.339C161.86 239.497 162.013 239.676 162.282 239.795C164.902 240.959 167.011 240.133 168.549 237.762C187.746 249.023 192.158 264.1 201.815 282.37C199.415 283.712 198.78 285.669 199.789 288.214C165.976 302.074 158.447 315.873 135.638 343.562C133.245 342.016 130.901 342.041 128.776 344.008Z" fill="#A4C461"/>
<path d="M100.098 313.368C123.041 288.123 145.673 272.469 161.723 241.292C161.833 241.375 161.773 241.35 161.924 241.461C162.075 241.572 162.283 241.78 162.53 241.893C165.009 243.025 166.78 242.191 168.217 239.954C168.247 239.908 168.281 239.823 168.311 239.772C186.838 250.638 190.483 265.029 199.886 282.394C199.836 282.417 199.757 282.44 199.712 282.465C197.511 283.653 196.882 285.439 197.797 287.761C197.816 287.809 197.864 287.881 197.887 287.933C165.521 301.145 157.526 315.362 135.718 341.846C135.669 341.812 135.605 341.749 135.56 341.719C133.366 340.303 131.237 340.389 129.305 342.185C129.265 342.222 129.219 342.29 129.179 342.331C119.943 334.848 110.672 327.405 101.358 320.019C101.393 319.974 101.456 319.917 101.487 319.874C102.997 317.762 102.75 315.708 100.933 313.908C100.753 313.73 100.482 313.599 100.33 313.501C100.179 313.402 100.213 313.44 100.098 313.368ZM161.858 241.935C147.069 272.543 122.991 288.802 100.729 313.279C100.884 313.393 101.055 313.474 101.194 313.612C103.135 315.525 103.437 317.676 101.937 319.977C111.037 327.192 120.092 334.465 129.114 341.777C131.162 340.01 133.343 339.916 135.642 341.291C157.219 315.084 165.342 300.823 197.352 287.728C196.504 285.325 197.15 283.498 199.353 282.205C190.178 265.264 186.559 250.954 168.456 240.337C166.833 242.657 165.006 243.488 162.344 242.264C162.151 242.175 162.029 242.046 161.858 241.935Z" fill="#739136"/>
<path d="M148.195 294.826C149.537 296.079 150.865 297.369 152.2 298.637C151.408 299.334 150.571 299.89 149.58 300.26C149.869 300.794 150.157 301.328 150.445 301.862C151.619 301.42 152.536 300.683 153.442 299.831C153.986 300.366 154.503 300.933 155.033 301.483C155.416 301.066 155.803 300.654 156.201 300.252C155.661 299.653 155.112 299.055 154.554 298.477C155.522 296.505 155.841 294.595 154.178 292.868C152.514 291.141 150.399 291.745 148.383 292.55C146.822 291.21 145.329 289.797 143.725 288.516C144.784 287.611 145.917 286.965 147.242 286.535C146.934 286.022 146.591 285.528 146.264 285.026C144.767 285.505 143.516 286.372 142.355 287.415C141.76 286.937 141.167 286.459 140.571 285.982C140.128 286.405 139.684 286.829 139.241 287.251C139.88 287.77 140.53 288.264 141.162 288.802C139.913 290.845 139.702 293.095 141.629 294.728C143.773 296.545 145.865 295.723 148.195 294.826ZM150.025 294.043C151.143 293.825 151.957 293.686 152.868 294.578C153.557 295.253 153.633 296.298 153.264 297.215C152.188 296.165 151.12 295.093 150.025 294.043ZM142.586 289.937C143.936 291.055 145.235 292.233 146.554 293.38C145.301 293.768 144.137 293.936 143.098 293.031C142.058 292.126 142.117 291.114 142.586 289.937Z" fill="#739136"/>
<path d="M159.14 304.565C165.008 298.213 166.063 288.505 159.745 282.045C153.426 275.585 142.559 277.259 135.997 283.567C129.435 289.874 129.755 299.592 136.676 305.447C143.597 311.301 153.273 310.917 159.14 304.565ZM136.916 284.254C143.008 278.394 153.022 276.837 158.943 282.844C164.865 288.851 163.879 297.863 158.395 303.767C152.91 309.67 143.857 310.069 137.458 304.597C131.059 299.124 130.824 290.113 136.916 284.254Z" fill="#739136"/>
<path d="M103.186 252.763C103.186 252.763 103.006 263.975 104.853 271.812C105.301 273.679 105.857 275.345 106.557 276.631C111.408 285.532 129.853 297.621 129.853 297.621C132.793 304.775 136.756 308.438 141.796 306.838C147.085 305.159 137.666 302.441 138.645 299.624C138.645 299.624 144.426 300.86 144.663 298.346C144.917 295.83 134.449 294.134 134.449 294.134C128.151 285.339 122.962 279.298 118.093 271.625C118.202 270.426 118.31 269.228 118.392 268.025C118.944 259.365 118.459 250.635 114.94 242.092C108.516 243.455 105.177 247.527 103.186 252.763Z" fill="#F9CBCB"/>
<path d="M103.163 270.664L119.978 268.434C120.529 259.774 122.835 241.732 113.596 241.795C101.296 241.879 101.317 262.828 103.163 270.664Z" fill="#FFC95E"/>
<path d="M453.805 542.887L19.2661 392.172C18.9876 392.076 18.8397 391.772 18.9365 391.493L19.1075 391C19.204 390.721 19.5082 390.574 19.7871 390.67L454.326 541.385C454.605 541.481 454.753 541.786 454.656 542.065L454.485 542.557C454.388 542.836 454.084 542.984 453.805 542.887Z" fill="#DFDFDF"/>
<path d="M97.4274 167.714C109.568 157.147 136.635 168.073 133.195 186.365C132.267 193.102 125.017 196.57 119.073 197.781C109.879 199.654 115.279 206.499 122.839 207.974C104.108 210.606 81.1196 181.909 97.4274 167.714Z" fill="#0CAF60"/>
<path d="M88.6024 171.78C88.9424 170.907 89.3507 170.059 89.8221 169.249C90.7625 167.633 91.9545 166.159 93.3321 164.895C95.9504 162.491 99.2765 160.928 102.785 160.385C104.725 160.085 106.689 160.114 108.6 160.561C108.809 160.61 108.732 160.939 108.527 160.925C105.207 160.702 101.866 161.098 98.8184 162.486C95.6703 163.919 93.0285 166.258 91.2133 169.202C90.69 170.051 90.2376 170.942 89.8609 171.866C89.4851 172.786 89.3105 173.785 88.9283 174.695C88.6897 175.263 87.8146 175.126 87.8452 174.476C87.8883 173.57 88.2761 172.618 88.6024 171.78Z" fill="#0CAF60"/>
<path d="M87.1959 177.994C87.2296 177.923 87.264 177.853 87.3011 177.784C87.3421 177.708 87.4033 177.682 87.4534 177.619C87.51 177.549 87.6518 177.531 87.6875 177.637C87.7088 177.7 87.756 177.744 87.7778 177.81C87.7988 177.875 87.8053 177.946 87.8184 178.012C87.8455 178.149 87.8679 178.286 87.8891 178.424C87.9369 178.732 87.9355 179.047 87.9568 179.358C87.9526 179.294 87.9676 179.477 87.9692 179.496C87.9763 179.569 87.9838 179.64 87.9927 179.712C88.0106 179.856 88.0326 180 88.058 180.143C88.0839 180.286 88.1134 180.428 88.1468 180.57C88.1635 180.64 88.185 180.71 88.2004 180.781C88.2312 180.925 88.215 181.033 88.184 181.174C88.0943 181.586 87.5014 181.637 87.2609 181.349C87.0417 181.086 87.0267 180.656 86.9903 180.326C86.9546 180.001 86.9344 179.672 86.9334 179.345C86.9325 179.034 86.9519 178.716 87.0363 178.415C87.0756 178.273 87.1321 178.127 87.1959 177.994Z" fill="#0CAF60"/>
<path d="M120.392 200.865C120.848 200.777 121.344 200.837 121.808 200.796C122.279 200.753 122.748 200.684 123.211 200.589C124.123 200.401 125.01 200.112 125.857 199.727C126.711 199.34 127.527 198.882 128.281 198.322C129.029 197.766 129.779 197.154 130.411 196.468C130.531 196.339 130.738 196.533 130.639 196.673C130.056 197.494 129.445 198.221 128.664 198.86C127.895 199.488 127.049 200.043 126.155 200.475C125.272 200.902 124.337 201.233 123.383 201.458C122.885 201.575 122.379 201.663 121.87 201.719C121.371 201.773 120.824 201.852 120.33 201.749C119.866 201.652 119.978 200.945 120.392 200.865Z" fill="#0CAF60"/>
<path d="M115.59 188.675C116.577 185.829 115.513 183.676 112.749 181.281L115.114 174.463C116.688 175.109 117.674 176.072 118.147 176.617L119.544 174.798C118.892 174.019 117.699 173.069 115.849 172.344L116.808 169.58L114.759 168.805L113.729 171.777C110.746 171.374 108.283 172.762 107.384 175.352C106.475 177.975 107.635 180.227 110.062 182.35L107.425 189.952C105.779 189.35 104.4 188.266 103.532 187.228L102.117 189.188C102.935 190.232 104.802 191.451 106.687 192.079L105.725 194.854L107.814 195.511L108.834 192.57C112.337 192.988 114.702 191.233 115.59 188.675ZM110.085 175.985C110.435 174.977 111.398 174.03 112.957 174.002L111.013 179.61C109.945 178.378 109.624 177.315 110.085 175.985ZM109.598 190.369L111.826 183.942C113.153 185.352 113.486 186.549 112.973 188.026C112.463 189.497 111.246 190.36 109.598 190.369Z" fill="white"/>
<path d="M165.624 205.309C165.676 205.541 165.634 205.786 165.499 205.994C165.322 206.269 165.02 206.423 164.694 206.407L161.539 206.249C161.212 206.232 160.928 206.049 160.778 205.757C160.629 205.466 160.646 205.128 160.824 204.853L162.538 202.2C162.715 201.925 163.017 201.771 163.343 201.787C163.67 201.804 163.954 201.987 164.103 202.279L165.544 205.09C165.58 205.161 165.607 205.234 165.624 205.309ZM161.396 205.384C161.401 205.405 161.408 205.421 161.413 205.432C161.428 205.461 161.475 205.531 161.574 205.536L164.729 205.694C164.829 205.699 164.882 205.635 164.9 205.606C164.918 205.579 164.955 205.505 164.909 205.415L163.468 202.604C163.423 202.515 163.341 202.502 163.307 202.5C163.274 202.498 163.191 202.504 163.137 202.587L161.423 205.24C161.388 205.295 161.388 205.347 161.396 205.384Z" fill="#D94559"/>
<path d="M415.365 238.805C415.417 239.038 415.375 239.283 415.241 239.491C415.063 239.766 414.762 239.92 414.435 239.904L411.28 239.745C410.953 239.729 410.669 239.545 410.52 239.254C410.371 238.963 410.388 238.625 410.565 238.35L412.279 235.697C412.457 235.422 412.758 235.268 413.085 235.284C413.412 235.301 413.696 235.484 413.845 235.776L415.285 238.587C415.322 238.658 415.348 238.731 415.365 238.805ZM411.138 238.882C411.143 238.902 411.15 238.919 411.155 238.929C411.17 238.959 411.216 239.028 411.316 239.033L414.471 239.192C414.57 239.196 414.623 239.132 414.641 239.104C414.659 239.076 414.696 239.002 414.651 238.913L413.21 236.102C413.164 236.012 413.083 235.999 413.049 235.998C413.016 235.996 412.933 236.001 412.879 236.085L411.164 238.738C411.13 238.792 411.13 238.844 411.138 238.882Z" fill="#D94559"/>
<path d="M179.843 80.6777L181.262 79.9895C181.585 79.8331 181.719 79.4452 181.563 79.1233C181.407 78.8011 181.018 78.6664 180.697 78.8229L179.277 79.5112L178.589 78.092C178.433 77.7698 178.045 77.6351 177.723 77.7916C177.401 77.9479 177.266 78.3358 177.423 78.6577L178.111 80.0769L176.694 80.7639C176.372 80.9202 176.237 81.3081 176.394 81.63C176.472 81.7912 176.608 81.9052 176.765 81.9596C176.922 82.0139 177.099 82.0087 177.26 81.9306L178.677 81.2431L179.364 82.6601C179.442 82.8213 179.578 82.9353 179.735 82.9895C179.891 83.0439 180.069 83.0387 180.23 82.9605C180.553 82.8042 180.687 82.4163 180.531 82.0944L179.843 80.6777Z" fill="#FFB86B"/>
<path d="M393.839 328.076L395.258 327.388C395.58 327.232 395.715 326.844 395.558 326.522C395.402 326.2 395.014 326.065 394.692 326.221L393.273 326.91L392.585 325.49C392.429 325.168 392.04 325.034 391.719 325.19C391.396 325.346 391.262 325.734 391.418 326.056L392.106 327.475L390.69 328.162C390.367 328.319 390.233 328.707 390.389 329.028C390.468 329.19 390.604 329.304 390.761 329.358C390.917 329.412 391.095 329.407 391.256 329.329L392.673 328.642L393.36 330.059C393.438 330.22 393.574 330.334 393.731 330.388C393.888 330.443 394.065 330.437 394.226 330.359C394.549 330.203 394.683 329.815 394.527 329.493L393.839 328.076Z" fill="#FFB86B"/>
<path d="M416.178 406.367C414.851 405.907 414.146 404.453 414.606 403.126C415.067 401.798 416.521 401.093 417.848 401.554C419.175 402.014 419.88 403.468 419.42 404.795C418.96 406.123 417.505 406.828 416.178 406.367ZM417.587 402.306C416.675 401.99 415.676 402.475 415.36 403.387C415.044 404.298 415.528 405.297 416.44 405.614C417.351 405.93 418.351 405.445 418.667 404.534C418.983 403.622 418.498 402.623 417.587 402.306Z" fill="#582F94"/>
<path d="M396.865 144.178C395.538 143.717 394.833 142.263 395.293 140.936C395.753 139.609 397.208 138.904 398.535 139.364C399.862 139.824 400.567 141.278 400.107 142.606C399.647 143.933 398.192 144.638 396.865 144.178ZM398.274 140.117C397.361 139.801 396.363 140.286 396.046 141.197C395.73 142.109 396.215 143.108 397.126 143.424C398.039 143.741 399.037 143.256 399.354 142.344C399.67 141.433 399.186 140.434 398.274 140.117Z" fill="#4E80C2"/>
<path d="M472.112 304.112C469.258 289.015 442.512 281.208 434.278 296.951C430.992 302.55 434.377 309.434 438.116 313.855C443.901 320.693 435.807 322.632 429.269 319.269C441.753 332.313 475.946 324.39 472.112 304.112Z" fill="#FFBA30"/>
<path d="M476.324 312.375C476.585 311.52 476.78 310.643 476.905 309.757C477.155 307.99 477.133 306.181 476.848 304.419C476.306 301.07 474.736 297.933 472.427 295.452C471.151 294.08 469.661 292.941 467.965 292.147C467.779 292.06 467.642 292.352 467.805 292.463C470.424 294.258 472.694 296.529 474.159 299.371C475.672 302.306 476.269 305.621 475.89 308.9C475.78 309.846 475.592 310.781 475.33 311.696C475.067 312.609 474.608 313.46 474.356 314.368C474.2 314.935 474.937 315.349 475.298 314.844C475.801 314.139 476.073 313.196 476.324 312.375Z" fill="#FFBA30"/>
<path d="M473.705 317.864C473.722 317.791 473.738 317.718 473.751 317.644C473.765 317.563 473.735 317.508 473.733 317.431C473.732 317.345 473.637 317.248 473.548 317.306C473.494 317.34 473.433 317.345 473.378 317.383C473.324 317.418 473.277 317.468 473.228 317.51C473.127 317.595 473.029 317.686 472.932 317.776C472.713 317.979 472.529 318.216 472.329 318.437C472.37 318.392 472.251 318.519 472.238 318.533C472.19 318.583 472.142 318.632 472.093 318.681C471.994 318.778 471.893 318.873 471.789 318.965C471.686 319.057 471.579 319.146 471.471 319.233C471.416 319.276 471.359 319.316 471.306 319.36C471.198 319.449 471.146 319.539 471.086 319.664C470.909 320.026 471.324 320.414 471.674 320.34C471.994 320.273 472.259 319.96 472.482 319.734C472.7 319.511 472.909 319.277 473.103 319.033C473.288 318.8 473.461 318.55 473.577 318.274C473.631 318.144 473.674 318.001 473.705 317.864Z" fill="#FFBA30"/>
<path d="M435.305 315.387C435.015 315.052 434.608 314.804 434.285 314.498C433.957 314.188 433.646 313.859 433.355 313.513C432.782 312.834 432.289 312.093 431.881 311.303C431.47 310.509 431.13 309.683 430.895 308.818C430.662 307.959 430.463 307.057 430.394 306.17C430.381 306.001 430.11 306.025 430.102 306.189C430.053 307.148 430.081 308.054 430.29 308.995C430.495 309.92 430.801 310.836 431.216 311.689C431.625 312.531 432.13 313.331 432.712 314.064C433.016 314.447 433.344 314.811 433.692 315.153C434.034 315.489 434.397 315.871 434.829 316.086C435.234 316.288 435.568 315.692 435.305 315.387Z" fill="#FFBA30"/>
<path d="M444.374 299.627L438.388 304.205L446.537 313.728L464.956 303.857L460.546 297.258L448.61 306.952L444.374 299.627Z" fill="white"/>
<path d="M266.479 418.599C261.376 433.299 256.272 447.995 251.174 462.693C250.311 462.447 247.72 461.898 245.066 463.364C242.416 464.82 241.487 467.311 241.199 468.328C219.324 460.745 197.449 453.161 175.574 445.578L196.157 386.235L202.672 388.494C215.023 392.778 227.372 397.057 239.725 401.338C247.256 403.954 254.79 406.571 262.323 409.184C262.118 410.018 261.714 412.222 262.795 414.647C263.838 416.965 265.63 418.136 266.479 418.599Z" fill="#F1BA03"/>
<path d="M126.434 362.052C138.807 366.344 151.179 370.636 163.552 374.927C175.904 379.208 188.255 383.489 200.607 387.77C210.347 391.152 220.087 394.535 229.827 397.917C222.963 417.692 216.1 437.467 209.236 457.242C174.924 445.347 140.612 433.451 106.3 421.555C106.404 421.07 106.854 418.722 105.404 416.471C104.331 414.805 102.812 414.113 102.233 413.883C102.55 412.961 102.868 412.039 103.185 411.117C103.75 410.765 105.3 409.699 106.144 407.624C107.167 405.107 106.436 402.867 106.237 402.314C106.744 401.99 108.73 400.639 109.462 397.978C110.036 395.895 109.524 394.159 109.295 393.507C109.723 393.306 111.701 392.322 112.612 389.967C113.625 387.345 112.529 385.061 112.346 384.696C112.844 384.392 114.679 383.193 115.491 380.75C116.265 378.421 115.613 376.455 115.402 375.888C115.772 375.688 117.471 374.715 118.168 372.574C118.822 370.564 118.151 368.878 117.972 368.464C118.297 367.54 118.622 366.617 118.947 365.693C119.397 365.827 121.277 366.33 123.327 365.366C125.47 364.359 126.27 362.468 126.434 362.052Z" fill="#0CAF60"/>
<path d="M256.869 412.424L129.739 368.331C126.345 367.153 122.644 368.951 121.466 372.345L108.44 409.904C107.263 413.295 109.056 416.998 112.451 418.176L239.58 462.269C242.975 463.446 246.676 461.649 247.852 458.257L260.879 420.699C262.056 417.305 260.263 413.601 256.869 412.424ZM246.957 457.099C245.9 460.147 242.573 461.76 239.528 460.704L113.454 416.977C110.409 415.921 108.796 412.594 109.853 409.546L122.359 373.488C123.417 370.44 126.743 368.826 129.788 369.883L255.863 413.61C258.908 414.666 260.521 417.992 259.464 421.041L246.957 457.099Z" fill="white"/>
<path d="M209.417 456.762C209.08 456.645 208.901 456.278 209.018 455.941L209.902 453.393C210.019 453.056 210.386 452.878 210.723 452.995C211.061 453.112 211.239 453.48 211.122 453.817L210.239 456.364C210.122 456.701 209.754 456.879 209.417 456.762ZM211.358 451.164C211.021 451.048 210.843 450.68 210.96 450.343L212.018 447.292C212.135 446.954 212.503 446.776 212.84 446.893C213.177 447.01 213.355 447.378 213.238 447.715L212.18 450.766C212.063 451.103 211.695 451.281 211.358 451.164ZM213.475 445.062C213.138 444.945 212.96 444.577 213.076 444.24L214.135 441.189C214.252 440.852 214.619 440.674 214.956 440.791C215.294 440.907 215.472 441.275 215.355 441.612L214.297 444.664C214.18 445.001 213.812 445.179 213.475 445.062ZM215.591 438.96C215.254 438.843 215.076 438.475 215.193 438.138L216.251 435.087C216.368 434.75 216.736 434.572 217.073 434.689C217.41 434.805 217.588 435.173 217.471 435.51L216.413 438.562C216.296 438.899 215.928 439.077 215.591 438.96ZM217.708 432.858C217.371 432.741 217.192 432.373 217.309 432.036L218.367 428.985C218.484 428.648 218.852 428.47 219.189 428.587C219.526 428.704 219.705 429.071 219.588 429.408L218.529 432.46C218.413 432.796 218.045 432.975 217.708 432.858ZM219.824 426.756C219.487 426.639 219.309 426.271 219.426 425.934L220.484 422.883C220.601 422.546 220.969 422.368 221.306 422.485C221.643 422.602 221.821 422.969 221.704 423.306L220.646 426.358C220.529 426.694 220.161 426.873 219.824 426.756ZM221.941 420.654C221.604 420.537 221.425 420.169 221.542 419.832L222.6 416.781C222.717 416.444 223.085 416.265 223.422 416.382C223.759 416.499 223.938 416.867 223.821 417.204L222.762 420.255C222.646 420.592 222.278 420.771 221.941 420.654ZM224.057 414.552C223.72 414.435 223.542 414.067 223.659 413.73L224.717 410.679C224.834 410.342 225.201 410.163 225.539 410.28C225.876 410.397 226.054 410.765 225.937 411.102L224.879 414.153C224.762 414.49 224.394 414.669 224.057 414.552ZM226.173 408.45C225.836 408.333 225.658 407.965 225.775 407.628L226.833 404.577C226.95 404.24 227.318 404.061 227.655 404.178C227.992 404.295 228.17 404.663 228.053 405L226.995 408.051C226.878 408.388 226.51 408.567 226.173 408.45ZM228.29 402.347C227.953 402.23 227.775 401.863 227.891 401.526L228.95 398.474C229.067 398.137 229.434 397.959 229.772 398.076C230.109 398.193 230.287 398.561 230.17 398.898L229.112 401.949C228.995 402.286 228.627 402.464 228.29 402.347Z" fill="white"/>
<path d="M142.419 385.969L139.503 384.958L140.383 382.422L149.006 385.412L148.126 387.949L145.21 386.937L139.932 402.154L137.142 401.187L142.42 385.97L142.419 385.969Z" fill="white"/>
<path d="M152.885 386.759L155.675 387.726L149.518 405.48L146.728 404.512L152.885 386.759Z" fill="white"/>
<path d="M155.316 406.495C154.879 405.491 154.9 404.296 155.381 402.909L158.689 393.373C159.169 391.987 159.893 391.035 160.858 390.517C161.823 390 162.974 389.972 164.31 390.436C165.646 390.899 166.532 391.633 166.97 392.637C167.408 393.641 167.387 394.837 166.906 396.223L166.255 398.1L163.617 397.185L164.33 395.131C164.711 394.032 164.437 393.321 163.507 392.998C162.576 392.676 161.921 393.064 161.54 394.163L158.101 404.08C157.725 405.162 158.003 405.864 158.932 406.187C159.862 406.509 160.515 406.13 160.891 405.047L161.832 402.334L164.469 403.248L163.598 405.759C163.117 407.146 162.394 408.098 161.428 408.615C160.463 409.133 159.312 409.16 157.976 408.697C156.641 408.233 155.754 407.5 155.316 406.495Z" fill="white"/>
<path d="M172.541 393.575L175.331 394.543L172.736 402.025L178.881 395.775L181.671 396.742L176.088 402.108L175.564 414.513L172.648 413.502L173.034 404.771L171.135 406.641L169.174 412.297L166.384 411.329L172.541 393.576L172.541 393.575Z" fill="white"/>
<path d="M185.576 398.096L193.185 400.735L192.305 403.271L187.486 401.6L185.859 406.292L189.689 407.62L188.809 410.156L184.979 408.828L183.088 414.281L187.907 415.952L187.027 418.488L179.419 415.849L185.576 398.096Z" fill="white"/>
<path d="M198.62 405.462L195.703 404.45L196.583 401.914L205.206 404.905L204.326 407.441L201.41 406.43L196.132 421.647L193.342 420.679L198.62 405.462Z" fill="white"/>
<path d="M204.506 431.37L124.038 403.461L123.633 404.628L204.101 432.538L204.506 431.37Z" fill="white"/>
<path d="M202.592 436.889L122.124 408.979L121.719 410.147L202.187 438.056L202.592 436.889Z" fill="white"/>
<path d="M243.619 413.698L244.208 418.403L248.418 420.585L244.126 422.599L243.351 427.277L240.109 423.817L235.421 424.527L237.709 420.374L235.586 416.134L240.243 417.028L243.619 413.698Z" fill="white"/>
<path d="M252.364 422.467L252.705 425.188L255.139 426.449L252.657 427.614L252.209 430.319L250.334 428.319L247.623 428.728L248.946 426.327L247.719 423.876L250.412 424.392L252.364 422.467Z" fill="white"/>
<path d="M231.716 415.306L232.057 418.027L234.492 419.289L232.009 420.454L231.562 423.159L229.687 421.158L226.976 421.568L228.299 419.167L227.072 416.715L229.764 417.232L231.716 415.306Z" fill="white"/>
<path d="M225.541 431.849L224.727 431.567L219.593 446.369L220.407 446.651L225.541 431.849Z" fill="#BCBEC0"/>
<path d="M231.283 433.839L230.469 433.557L225.335 448.359L226.149 448.642L231.283 433.839Z" fill="#BCBEC0"/>
<path d="M233.074 434.46L232.26 434.178L227.127 448.98L227.94 449.262L233.074 434.46Z" fill="#BCBEC0"/>
<path d="M234.865 435.081L234.051 434.799L228.917 449.601L229.731 449.884L234.865 435.081Z" fill="#BCBEC0"/>
<path d="M242.992 437.899L242.178 437.617L237.044 452.419L237.858 452.702L242.992 437.899Z" fill="#BCBEC0"/>
<path d="M244.823 438.535L244.009 438.252L238.875 453.055L239.689 453.337L244.823 438.535Z" fill="#BCBEC0"/>
<path d="M246.653 439.17L245.839 438.888L240.705 453.69L241.519 453.972L246.653 439.17Z" fill="#BCBEC0"/>
<path d="M248.484 439.805L247.67 439.522L242.536 454.325L243.35 454.607L248.484 439.805Z" fill="#BCBEC0"/>
<path d="M229.123 433.09L226.518 432.187L221.384 446.989L223.989 447.892L229.123 433.09Z" fill="#BCBEC0"/>
<path d="M241.153 437.262L236.059 435.496L230.925 450.298L236.019 452.065L241.153 437.262Z" fill="#BCBEC0"/>
<path d="M243.21 94.6245C245.611 96.2944 247.801 97.2981 248.101 96.866C248.301 96.5785 247.612 95.7282 246.424 94.7L253.317 79.3125L257.305 81.5367L259.645 90.2543L263.33 90.6448L262.49 81.2715L268.649 83.2865L264.617 78.2142L273.696 75.74L272.047 72.4209L262.931 73.2727L259.547 70.3749L271.532 58.5992C272.91 59.3555 273.947 59.7054 274.147 59.4179C274.447 58.9857 272.744 57.282 270.343 55.6124C267.942 53.9424 265.752 52.9387 265.452 53.3708C265.192 53.7442 266.431 55.0687 268.322 56.4997L265.616 55.3094L261.064 57.5139L260.304 56.7091C259.884 56.2639 259.182 56.2443 258.738 56.6647C258.292 57.085 258.272 57.7867 258.693 58.2315L258.973 58.5271L257.858 59.0667L256.595 57.7293C256.175 57.2842 255.473 57.2646 255.028 57.685C254.583 58.1053 254.564 58.8072 254.984 59.2518L255.767 60.0803L250.339 62.4913L250.31 62.4663L250.276 62.5159L233.999 54.7679L233.728 55.158L232.606 54.3777C231.583 53.6659 230.481 53.0698 229.312 52.6375C227.002 51.7822 225.013 51.5131 223.841 51.4322C223.298 51.3949 222.914 51.947 223.138 52.4428C223.622 53.5131 224.566 55.2842 226.171 57.1524C226.983 58.0979 227.926 58.9233 228.949 59.635L230.071 60.4154L229.799 60.8055L242.878 73.5153L242.326 79.404L241.277 78.9588C240.714 78.7196 240.063 78.9825 239.824 79.5459C239.585 80.1087 239.847 80.7601 240.41 80.9993L242.104 81.7185L241.985 82.951L241.611 82.7916C241.048 82.5524 240.397 82.8153 240.158 83.3787C239.918 83.9421 240.181 84.593 240.744 84.8322L241.763 85.2649L241.281 90.2994L243.338 92.4227C241.338 91.1474 239.665 90.4468 239.406 90.8202C239.106 91.2506 240.809 92.9543 243.21 94.6245ZM242.943 73.5259L242.921 73.5174L242.923 73.5143L242.943 73.5259Z" fill="#0092D6"/>
<path d="M407.438 139.334L407.437 139.336L407.436 139.333L407.438 139.334Z" fill="#FC6A98"/>
<path d="M434.828 116.002C418.284 110.087 399.852 118.695 393.792 135.187C391.452 141.554 391.247 148.167 392.808 154.256L392.811 154.257L392.81 154.26L392.815 154.268C398.139 168.175 402.312 183.473 404.498 197.382C404.724 198.816 406.479 199.403 407.516 198.387C417.174 188.914 432.436 179.77 444.351 171.22C448.819 167.576 452.363 162.689 454.391 156.843C460.18 140.152 451.427 121.935 434.828 116.002ZM417.313 165.55C413.69 164.294 410.648 162.117 408.357 159.374C403.925 154.063 402.307 146.631 404.738 139.622C408.426 128.99 420.034 123.363 430.666 127.051C441.297 130.738 446.929 142.345 443.241 152.976C440.886 159.768 435.301 164.517 428.799 166.1C425.123 166.997 421.152 166.882 417.313 165.55Z" fill="#F07560"/>
<path d="M394.369 208.757C395.729 204.834 400.013 202.757 403.936 204.117C407.86 205.478 409.937 209.761 408.576 213.685C407.216 217.608 402.932 219.686 399.009 218.325C395.085 216.964 393.008 212.681 394.369 208.757Z" fill="#F1BA03"/>
<path d="M456.666 505.748C456.051 505.538 455.52 505.234 455.071 504.834C454.625 504.426 454.274 503.954 454.018 503.419C453.77 502.887 453.63 502.318 453.599 501.713C453.567 501.108 453.655 500.503 453.862 499.897C454.071 499.282 454.373 498.745 454.767 498.286C455.162 497.826 455.618 497.465 456.137 497.203C456.667 496.936 457.228 496.78 457.819 496.735C458.422 496.684 459.03 496.764 459.644 496.973C460.315 497.202 460.866 497.518 461.296 497.92C461.725 498.323 462.069 498.787 462.328 499.314L461.258 499.841C461.091 499.446 460.84 499.095 460.506 498.789C460.179 498.486 459.767 498.249 459.267 498.079C458.817 497.925 458.375 497.866 457.943 497.901C457.513 497.928 457.108 498.042 456.729 498.242C456.35 498.442 456.015 498.716 455.722 499.064C455.438 499.415 455.215 499.828 455.053 500.303C454.891 500.778 454.815 501.241 454.826 501.693C454.845 502.147 454.943 502.569 455.121 502.959C455.299 503.348 455.548 503.689 455.869 503.982C456.193 504.266 456.58 504.485 457.03 504.638C457.563 504.82 458.055 504.891 458.506 504.854C458.961 504.807 459.375 504.679 459.748 504.468L460.279 505.526C459.746 505.802 459.174 505.964 458.564 506.011C457.962 506.062 457.329 505.974 456.666 505.748ZM461.099 507.122L463.088 501.288L464.194 501.665L462.204 507.499L461.099 507.122ZM463.339 504.17L462.984 503.844C463.239 503.099 463.613 502.563 464.108 502.239C464.602 501.914 465.173 501.861 465.82 502.082C466.115 502.183 466.363 502.327 466.564 502.514C466.768 502.693 466.932 502.937 467.056 503.244L466.076 503.746C465.997 503.573 465.894 503.433 465.767 503.325C465.639 503.218 465.477 503.13 465.28 503.063C464.871 502.924 464.49 502.94 464.139 503.113C463.787 503.286 463.521 503.638 463.339 504.17ZM468.498 509.782C467.916 509.584 467.437 509.274 467.059 508.853C466.685 508.424 466.44 507.934 466.327 507.383C466.213 506.832 466.255 506.266 466.453 505.685C466.649 505.111 466.956 504.64 467.374 504.271C467.801 503.905 468.284 503.667 468.824 503.559C469.374 503.445 469.932 503.484 470.497 503.677C471.038 503.861 471.471 504.146 471.796 504.531C472.13 504.919 472.338 505.369 472.419 505.882C472.509 506.397 472.46 506.929 472.273 507.477C472.245 507.559 472.21 507.648 472.168 507.743C472.13 507.831 472.077 507.931 472.01 508.046L467.085 506.366L467.399 505.445L471.735 506.924L471.208 507.142C471.342 506.748 471.386 506.393 471.339 506.075C471.294 505.749 471.17 505.47 470.967 505.236C470.766 504.993 470.485 504.811 470.125 504.688C469.748 504.56 469.389 504.528 469.046 504.594C468.704 504.66 468.404 504.814 468.148 505.056C467.892 505.298 467.696 505.619 467.559 506.021C467.419 506.43 467.378 506.818 467.436 507.185C467.496 507.544 467.649 507.861 467.893 508.137C468.14 508.404 468.461 508.604 468.854 508.738C469.181 508.85 469.5 508.895 469.809 508.872C470.126 508.852 470.423 508.761 470.697 508.599L471.163 509.567C470.773 509.799 470.343 509.932 469.875 509.964C469.415 509.999 468.956 509.939 468.498 509.782ZM474.862 511.953C474.33 511.771 473.891 511.475 473.547 511.065C473.205 510.647 472.985 510.165 472.888 509.62C472.798 509.078 472.851 508.52 473.047 507.947C473.242 507.374 473.541 506.9 473.943 506.525C474.353 506.153 474.818 505.904 475.336 505.779C475.862 505.657 476.395 505.688 476.936 505.872C477.378 506.023 477.739 506.251 478.019 506.557C478.309 506.857 478.505 507.207 478.606 507.607C478.71 507.999 478.702 508.413 478.581 508.847L477.982 510.603C477.816 511.013 477.57 511.345 477.245 511.6C476.929 511.857 476.562 512.02 476.146 512.089C475.741 512.152 475.313 512.106 474.862 511.953ZM475.403 510.971C475.951 511.158 476.456 511.125 476.918 510.871C477.382 510.609 477.713 510.187 477.911 509.606C478.048 509.204 478.089 508.83 478.034 508.482C477.99 508.129 477.857 507.823 477.634 507.564C477.414 507.297 477.12 507.101 476.752 506.975C476.383 506.849 476.026 506.824 475.681 506.898C475.344 506.975 475.042 507.137 474.775 507.384C474.518 507.626 474.325 507.939 474.194 508.324C474.06 508.717 474.019 509.092 474.071 509.448C474.134 509.798 474.28 510.109 474.508 510.378C474.736 510.648 475.034 510.846 475.403 510.971ZM476.845 512.492L477.381 510.919L478.076 509.566L478.349 508.082L478.835 506.657L479.952 507.038L477.963 512.873L476.845 512.492ZM480.445 513.719L483.268 505.44L484.374 505.817L481.551 514.096L480.445 513.719ZM480.654 508.402L480.997 507.394L484.977 508.751L484.634 509.759L480.654 508.402ZM486.551 515.939C485.97 515.74 485.491 515.431 485.113 515.009C484.739 514.58 484.494 514.09 484.38 513.539C484.267 512.988 484.309 512.422 484.507 511.841C484.702 511.268 485.009 510.796 485.428 510.427C485.854 510.061 486.338 509.823 486.877 509.715C487.428 509.601 487.986 509.64 488.551 509.833C489.092 510.017 489.525 510.302 489.85 510.687C490.184 511.075 490.392 511.526 490.473 512.038C490.563 512.553 490.514 513.085 490.327 513.633C490.299 513.715 490.264 513.804 490.222 513.899C490.183 513.987 490.131 514.088 490.064 514.202L485.138 512.522L485.453 511.601L489.789 513.08L489.262 513.298C489.396 512.905 489.439 512.549 489.392 512.231C489.348 511.906 489.224 511.626 489.021 511.392C488.82 511.149 488.539 510.967 488.179 510.844C487.802 510.716 487.443 510.684 487.1 510.751C486.758 510.817 486.458 510.97 486.202 511.212C485.946 511.454 485.75 511.775 485.613 512.177C485.473 512.586 485.432 512.974 485.49 513.342C485.55 513.7 485.703 514.017 485.947 514.293C486.194 514.56 486.514 514.76 486.907 514.894C487.235 515.006 487.554 515.051 487.863 515.028C488.18 515.009 488.476 514.918 488.751 514.755L489.217 515.723C488.826 515.956 488.397 516.088 487.929 516.12C487.469 516.156 487.01 516.095 486.551 515.939Z" fill="white"/>
</g>
<defs>
<filter id="filter0_d_641_13836" x="14.9067" y="51.4304" width="481.313" height="499.486" filterUnits="userSpaceOnUse" color-interpolation-filters="sRGB">
<feFlood flood-opacity="0" result="BackgroundImageFix"/>
<feColorMatrix in="SourceAlpha" type="matrix" values="0 0 0 0 0 0 0 0 0 0 0 0 0 0 0 0 0 0 127 0" result="hardAlpha"/>
<feOffset dy="4"/>
<feGaussianBlur stdDeviation="2"/>
<feComposite in2="hardAlpha" operator="out"/>
<feColorMatrix type="matrix" values="0 0 0 0 0 0 0 0 0 0 0 0 0 0 0 0 0 0 0.25 0"/>
<feBlend mode="normal" in2="BackgroundImageFix" result="effect1_dropShadow_641_13836"/>
<feBlend mode="normal" in="SourceGraphic" in2="effect1_dropShadow_641_13836" result="shape"/>
</filter>
</defs>
</svg>
